<?xml version="1.0" encoding="utf-8"?>
<!-- Generator: Adobe Illustrator 19.0.0, SVG Export Plug-In . SVG Version: 6.00 Build 0)  -->
<svg version="1.1" id="Capa_1" xmlns="http://www.w3.org/2000/svg" xmlns:xlink="http://www.w3.org/1999/xlink" x="0px" y="0px"
	 viewBox="0 0 429 410" style="enable-background:new 0 0 429 410;" xml:space="preserve">
<style type="text/css">
	.st0{fill:#FFFFFF;}
	.st1{fill:#0C4987;}
	.st2{fill:#96B944;}
</style>
<g>
	<path class="st0" d="M336.6,392.5H93.4c-43.7,0-79.1-35.4-79.1-79.1V91.1C14.2,47.4,49.7,12,93.4,12h243.3
		c43.7,0,79.1,35.4,79.1,79.1v222.3C415.8,357.1,380.3,392.5,336.6,392.5z"/>
	<path class="st1" d="M14.2,147.1c40.5-34.7,139.1-54,190.3-4.6C254,190.3,397.6,228.4,415,135c12-64.3-15.5-123-78.4-123
		c-27.9,0-225.4-1-246.6,0.5C64.5,14.3,22.8,23.1,15.8,77C11.5,109.7,14.2,147.1,14.2,147.1z"/>
	<path class="st1" d="M14.2,203.1v-26.3c0,0,32.5-31.8,94.3-37.8c73.5-7.3,155.7,84.8,214.8,76.8c64.3-8.8,92.5-43.8,92.5-43.8v29
		c0,0-32.5,42.5-96.3,44.3c-59.5,1.6-134.8-71.3-186.8-75C102.4,168.1,81.8,164.9,14.2,203.1z"/>
	<path class="st1" d="M14.2,256.4v-26.3c0,0,32.5-31.8,94.3-37.8c73.5-7.3,155.7,84.8,214.8,76.8c64.3-8.8,92.5-43.9,92.5-43.9v29.2
		c0,0-32.5,42.5-96.3,44.3c-59.5,1.6-134.8-71.3-186.8-75C102.4,221.4,81.8,218.2,14.2,256.4z"/>
	<path class="st2" d="M14.2,306.5v-26.7c0,0,32.5-31.8,94.3-37.8c73.5-7.3,155.7,84.8,214.8,76.7c64.3-8.8,92.5-43.9,92.5-43.9v29.1
		c0,0-32.5,42.5-96.3,44.3c-59.5,1.6-134.8-71.3-186.8-75C102.4,271,81.8,268.3,14.2,306.5z"/>
	<path class="st2" d="M16.8,333.5c0,0,41.8-38.2,88.7-41C172.8,288.5,242,371,310,371s104.3-42.3,104.3-42.3s-10.1,56.6-65.3,62.6
		c-46.8,5.1-255.6,1.3-255.6,1.3S29.1,391.5,16.8,333.5z"/>
	<path class="st0" d="M157.1,117c0,0-22-28.4-42.6-28.8C94,87.8,75,103.3,65.3,104S45.5,86.5,59,70s45.3-31.8,70.3-31
		s64.5,27.3,81.8,55.3s27.8,33,26.5,44.8s-22.4-17.9-39.5-32c-5.9-4.8-24-34.4-60.5-45.3C96.3,49.5,74,72.3,72.8,78.8
		c-1.9,9.9,24.5-1.8,38-1.8c24.5,0.2,34.4,12.5,43.8,22c11.2,11.3,12.6,21,12.6,21L157.1,117z"/>
	<path class="st0" d="M268.8,46.8C307.5,47.1,315,80,312.5,97s-19,40.8-43.8,39.3s-41-24.9-42.5-44.7S244,46.5,268.8,46.8z"/>
	<path class="st0" d="M265.8,79"/>
	<path class="st0" d="M172.8,127"/>
	<path class="st1" d="M269.1,63.7c22.3,0.2,26.7,19.2,25.2,29c-1.4,9.8-10.9,23.5-25.2,22.6c-14.3-0.9-23.6-14.4-24.5-25.8
		S254.8,63.6,269.1,63.7z"/>
</g>
</svg>
