<?xml version="1.0" encoding="utf-8"?>
<!-- Generator: Adobe Illustrator 19.0.0, SVG Export Plug-In . SVG Version: 6.00 Build 0)  -->
<svg version="1.1" id="Capa_1" xmlns="http://www.w3.org/2000/svg" xmlns:xlink="http://www.w3.org/1999/xlink" x="0px" y="0px"
	 viewBox="0 0 560 560" style="enable-background:new 0 0 560 560;" xml:space="preserve">
<style type="text/css">
	.st0{fill:url(#XMLID_110_);stroke:#0A0909;stroke-width:2;stroke-miterlimit:10;}
	.st1{fill:url(#XMLID_115_);stroke:#0A0909;stroke-width:2;stroke-miterlimit:10;}
	.st2{fill:#0C4987;}
	.st3{fill:url(#XMLID_117_);}
	.st4{fill:url(#XMLID_118_);}
	.st5{fill:#DDEAF4;}
	.st6{fill:url(#XMLID_119_);}
	.st7{fill:url(#XMLID_121_);}
	.st8{fill:#C2DCEF;}
	.st9{fill:url(#XMLID_122_);}
	.st10{fill:none;stroke:#246EB1;stroke-width:1.3229;stroke-miterlimit:10;}
	.st11{fill:none;stroke:#211915;stroke-width:1.3229;stroke-miterlimit:10;}
	.st12{opacity:0.42;fill:#FFFFFF;}
	.st13{opacity:0.28;fill:#DDEAF4;}
	.st14{opacity:0.39;fill:#DDEAF4;}
	.st15{opacity:0.41;fill:#FFFFFF;}
	.st16{opacity:0.85;fill:#FFFFFF;}
	.st17{fill:#FFFFFF;}
	.st18{opacity:0.67;fill:#FFFFFF;}
	.st19{opacity:0.39;fill:#FFFFFF;}
	.st20{opacity:0.2;fill:#FFFFFF;}
	.st21{opacity:0.46;fill:#FFFFFF;}
	.st22{opacity:0.44;fill:#FFFFFF;}
	.st23{opacity:0.59;fill:#FFFFFF;}
	.st24{opacity:0.52;fill:#FFFFFF;}
	.st25{opacity:0.5;fill:#F1F2F3;}
	.st26{fill:url(#XMLID_123_);stroke:#000000;stroke-miterlimit:10;}
	.st27{fill:url(#XMLID_124_);stroke:#000000;stroke-miterlimit:10;}
	.st28{fill:url(#XMLID_125_);stroke:#000000;stroke-miterlimit:10;}
	.st29{fill:url(#XMLID_126_);stroke:#000000;stroke-miterlimit:10;}
	.st30{fill:url(#XMLID_127_);stroke:#000000;stroke-miterlimit:10;}
	.st31{fill:url(#XMLID_128_);stroke:#000000;stroke-miterlimit:10;}
	.st32{fill:url(#XMLID_129_);stroke:#000000;stroke-miterlimit:10;}
	.st33{fill:url(#XMLID_130_);stroke:#000000;stroke-miterlimit:10;}
	.st34{fill:url(#XMLID_131_);stroke:#000000;stroke-miterlimit:10;}
	.st35{fill:url(#XMLID_132_);stroke:#000000;stroke-miterlimit:10;}
	.st36{fill:url(#XMLID_133_);stroke:#000000;stroke-miterlimit:10;}
	.st37{fill:url(#XMLID_134_);stroke:#000000;stroke-miterlimit:10;}
	.st38{fill:url(#XMLID_135_);stroke:#000000;stroke-miterlimit:10;}
	.st39{fill:url(#XMLID_136_);stroke:#000000;stroke-miterlimit:10;}
	.st40{fill:url(#XMLID_137_);stroke:#000000;stroke-miterlimit:10;}
	.st41{fill:url(#XMLID_138_);stroke:#000000;stroke-miterlimit:10;}
	.st42{fill:url(#XMLID_139_);stroke:#000000;stroke-miterlimit:10;}
	.st43{fill:url(#XMLID_140_);stroke:#000000;stroke-miterlimit:10;}
	.st44{fill:url(#XMLID_141_);stroke:#000000;stroke-miterlimit:10;}
	.st45{fill:url(#XMLID_142_);stroke:#000000;stroke-miterlimit:10;}
	.st46{fill:url(#XMLID_143_);stroke:#000000;stroke-miterlimit:10;}
</style>
<linearGradient id="XMLID_110_" gradientUnits="userSpaceOnUse" x1="35.8816" y1="251.4511" x2="531.4866" y2="251.4511">
	<stop  offset="0" style="stop-color:#0C4987"/>
	<stop  offset="0.1752" style="stop-color:#0E4A88"/>
	<stop  offset="0.2383" style="stop-color:#154F8B"/>
	<stop  offset="0.2833" style="stop-color:#205891"/>
	<stop  offset="0.3197" style="stop-color:#316599"/>
	<stop  offset="0.3509" style="stop-color:#4776A4"/>
	<stop  offset="0.3785" style="stop-color:#638AB2"/>
	<stop  offset="0.4035" style="stop-color:#83A2C2"/>
	<stop  offset="0.4264" style="stop-color:#A9BED4"/>
	<stop  offset="0.4468" style="stop-color:#D2DDE9"/>
	<stop  offset="0.4657" style="stop-color:#FFFFFF"/>
	<stop  offset="0.4872" style="stop-color:#D2DDE9"/>
	<stop  offset="0.5107" style="stop-color:#A9BED4"/>
	<stop  offset="0.537" style="stop-color:#83A2C2"/>
	<stop  offset="0.5657" style="stop-color:#638AB2"/>
	<stop  offset="0.5973" style="stop-color:#4776A4"/>
	<stop  offset="0.6331" style="stop-color:#316599"/>
	<stop  offset="0.6749" style="stop-color:#205891"/>
	<stop  offset="0.7265" style="stop-color:#154F8B"/>
	<stop  offset="0.7989" style="stop-color:#0E4A88"/>
	<stop  offset="1" style="stop-color:#0C4987"/>
	<stop  offset="1" style="stop-color:#0C4987"/>
	<stop  offset="1" style="stop-color:#0C4987"/>
	<stop  offset="1" style="stop-color:#527EAA"/>
	<stop  offset="1" style="stop-color:#FFFFFF"/>
	<stop  offset="1" style="stop-color:#0C4987"/>
	<stop  offset="1" style="stop-color:#0C4987"/>
	<stop  offset="1" style="stop-color:#0C4987"/>
</linearGradient>
<circle id="XMLID_108_" class="st0" cx="283.7" cy="251.5" r="247.8"/>
<linearGradient id="XMLID_115_" gradientUnits="userSpaceOnUse" x1="394.9665" y1="444.1979" x2="172.4018" y2="58.7044">
	<stop  offset="0" style="stop-color:#FFFFFF"/>
	<stop  offset="0.3627" style="stop-color:#ADD0FB"/>
	<stop  offset="0.5528" style="stop-color:#87BAF9"/>
	<stop  offset="0.6052" style="stop-color:#A4CBFA"/>
	<stop  offset="0.6777" style="stop-color:#C5DDFC"/>
	<stop  offset="0.7525" style="stop-color:#DEECFD"/>
	<stop  offset="0.8295" style="stop-color:#F1F7FE"/>
	<stop  offset="0.91" style="stop-color:#FBFDFF"/>
	<stop  offset="1" style="stop-color:#FFFFFF"/>
</linearGradient>
<circle id="XMLID_74_" class="st1" cx="283.7" cy="251.5" r="222.5"/>
<g id="XMLID_150_">
	<defs>
		<polyline id="XMLID_72_" points="489.9,65 34.5,65 34.5,577.7 489.9,577.7 		"/>
	</defs>
	<clipPath id="XMLID_116_">
		<use xlink:href="#XMLID_72_"  style="overflow:visible;"/>
	</clipPath>
</g>
<g id="XMLID_1_">
	<g id="XMLID_120_">
		<path id="XMLID_31_" d="M307.5,174.6c4.9-1.1,9.6-2.2,14.3-3.2c0.9-0.2,1.9-0.2,2.9,0c1.5,0.3,2,1.5,1.4,2.9
			c-0.1,0.1-0.1,0.3-0.2,0.4c-2.6,3.1-5.5,5.8-9.5,7c-2.8,0.8-5.1-0.1-6.9-2.4C308.5,178,307.8,176.6,307.5,174.6z"/>
		<path id="XMLID_30_" d="M297.9,501.2c-0.6,0.3-0.8,0.4-1.1,0.5c0,0,0.2-0.2,0.7-0.5C297.6,501.2,297.7,501.2,297.9,501.2z"/>
		<path id="XMLID_29_" class="st2" d="M283.9,197.7c0.8-0.4,1.7-0.7,2.5,0c0.9,0.8,0.6,1.8,0.2,2.7c-1.7,3.6-3.5,7.2-5.2,10.8
			c-2.2,4.6-4.3,9.3-5.1,14.4c0,0.1-0.1,0.3-0.5,0.8c-0.6-8.3-1-16.1,3.1-23.2c0.8-1.5,1.9-2.8,3-4.1
			C282.4,198.5,283.2,198.1,283.9,197.7z"/>
		<path id="XMLID_28_" class="st2" d="M273.7,206.3c-1.2,3-2.6,6-3.7,9c-1.4,3.7-2.5,7.4-3.7,11.2c-0.4,1.2-0.4,2.4-0.6,3.6
			l-0.4,0.1c-0.2-0.4-0.4-0.8-0.5-1.2c-0.5-3.9-1.3-7.8-1-11.7c0.3-4,1.4-7.7,3.9-11c0.8-1.1,2.1-1.9,3.2-2.6
			c0.8-0.5,1.7-0.5,2.5,0.1C274.2,204.5,274,205.4,273.7,206.3z"/>
		<linearGradient id="XMLID_117_" gradientUnits="userSpaceOnUse" x1="185.5695" y1="503.4803" x2="314.7961" y2="503.4803">
			<stop  offset="1.507538e-002" style="stop-color:#0C4987"/>
			<stop  offset="0.1492" style="stop-color:#104C89"/>
			<stop  offset="0.2767" style="stop-color:#1B548F"/>
			<stop  offset="0.4017" style="stop-color:#2E6398"/>
			<stop  offset="0.5251" style="stop-color:#4977A5"/>
			<stop  offset="0.6473" style="stop-color:#6C91B7"/>
			<stop  offset="0.7686" style="stop-color:#97B1CC"/>
			<stop  offset="0.8869" style="stop-color:#C8D6E4"/>
			<stop  offset="1" style="stop-color:#FFFFFF"/>
			<stop  offset="1" style="stop-color:#CAD7E5"/>
			<stop  offset="1" style="stop-color:#98B2CC"/>
			<stop  offset="1" style="stop-color:#6D92B7"/>
			<stop  offset="1" style="stop-color:#4A77A6"/>
			<stop  offset="1" style="stop-color:#2F6398"/>
			<stop  offset="1" style="stop-color:#1B558F"/>
			<stop  offset="1" style="stop-color:#104C89"/>
			<stop  offset="1" style="stop-color:#0C4987"/>
		</linearGradient>
		<path id="XMLID_27_" class="st3" d="M302.7,554.1c0,0.6,0,1.1,0,2.1c-2.3-0.3-4.3-0.4-6.3-0.8c-11.5-2.1-22-6.5-31.9-12.7
			c-5.3-3.3-10.3-7.1-14.6-11.6c-3.2-3.3-6.1-6.9-8.8-10.6c-5.8-8.1-10.8-16.7-14.6-26c-0.9-2.2-1.7-4.4-2.6-6.6
			c-0.7-2-1.9-3.4-3.7-4.6c-7.6-4.7-14.9-9.7-21.9-15.3c-4.5-3.7-8.8-7.5-12.8-11.5l9-5.6c4.1,3.6,8.5,6.8,13.2,9.6
			c11.4,6.7,23.1,12.9,34.9,18.8c1.3,0.7,2,1.5,2.3,2.9c0.9,3.6,1.7,7.2,2.9,10.7c1.4,4,3.1,7.9,4.8,11.7c0.3,0.7,0.7,1.9,1.8,1.6
			c1.1-0.3,0.8-1.4,0.9-2.3c0.4-4.3,0.7-8.7,1.2-13.1c0.2-1.6,0.8-3.2,1.2-4.9c0.2,0,0.3,0,0.5,0c0.6,1.1,1.2,2.2,1.7,3.3
			c1.7,3.3,3.6,6.5,6,9.3c3.2,3.7,7.1,5.9,12.2,5.7c6.3-0.2,12.4-1.1,18.5-2.7c0.3-0.1,0.5-0.2,1.1-0.5c-0.2,0-0.3,0-0.4,0
			c1.8-1.2,7.1-3.8,17.3-2.9c-4.6,7.2-10.6,11.8-19.1,12.3c-3.3,0.2-6.7,0-10,0c-0.5,0-1-0.1-1.6-0.1c-1.2,0.1-1.5,0.7-0.9,1.8
			c0.2,0.4,0.5,0.7,0.7,1.1c6.2,9,11.5,18.5,15.5,28.8C301.1,546,302.4,549.9,302.7,554.1z"/>
		<path id="XMLID_26_" class="st2" d="M260.5,208.9c0.5-0.2,1.3-0.2,1.8,0c0.3,0.2,0.3,1.1,0.1,1.6c-0.4,1.2-0.9,2.4-1.4,3.5
			c-1.3,3.3-2.8,6.6-4,9.9c-1.1,2.9-2,5.9-2.1,9c-1.6-6.8-2-13.5,1.4-19.9C257.3,211.3,258.5,209.7,260.5,208.9z"/>
		<path id="XMLID_25_" class="st2" d="M251.1,215.8c-0.3,1.5-0.8,3-1.3,4.5c-0.7,2.4-1.5,4.8-2.1,7.2c-0.5,2.4-0.7,4.8-1.1,7.8
			c-0.3-0.5-0.4-0.7-0.5-0.9c-1.1-4.9-1.9-9.7-0.6-14.7c0.3-1.1,0.6-2.1,1.2-3.1c0.5-0.9,1.1-1.7,1.9-2.4c0.6-0.6,1.5-1.1,2.2-0.4
			C251.1,214.2,251.2,215.1,251.1,215.8z"/>
		<linearGradient id="XMLID_118_" gradientUnits="userSpaceOnUse" x1="158.8192" y1="218.5385" x2="250.4522" y2="218.5385">
			<stop  offset="0" style="stop-color:#FFFFFF"/>
			<stop  offset="0.1128" style="stop-color:#CAD7E5"/>
			<stop  offset="0.2339" style="stop-color:#98B2CC"/>
			<stop  offset="0.358" style="stop-color:#6D92B7"/>
			<stop  offset="0.4828" style="stop-color:#4A77A6"/>
			<stop  offset="0.6085" style="stop-color:#2F6398"/>
			<stop  offset="0.7356" style="stop-color:#1B558F"/>
			<stop  offset="0.865" style="stop-color:#104C89"/>
			<stop  offset="1" style="stop-color:#0C4987"/>
			<stop  offset="1" style="stop-color:#000000"/>
		</linearGradient>
		<path id="XMLID_24_" class="st4" d="M250.5,193.5c-5.1,2.8-10.2,5.5-15.2,8.5c-5.1,3-10.1,6.2-15.1,9.5
			c-4.9,3.3-9.6,6.7-14.3,10.2c-4.7,3.6-9.4,7.3-14,11c-4.5,3.7-8.9,7.6-13.4,11.5c-3.1-5.1-6-10.1-9.3-14.8
			c-3.2-4.7-6.8-9.1-10.4-13.9c1-0.6,1.9-1.2,2.9-1.7c15.3-7.9,31.4-13.2,48.3-16.5c8.8-1.8,17.7-3.1,26.6-3.7c4-0.3,8-0.5,12-0.7
			c0.6,0,1.2,0.1,1.8,0.2C250.4,193.2,250.4,193.3,250.5,193.5z"/>
		<path id="XMLID_23_" d="M313.3,224.2c-6.1,0.4-12.1,1.1-18.1,1.9c-2.1,0.3-3.9-0.1-5.8-1c-2.4-1.2-3.1-1.1-4.8,0.9
			c-1.2,1.3-2.1,2.8-3.2,4.3c-1.3,1.9-2.9,3-5.3,2c-0.7-0.3-1.5-0.2-2.2-0.3c-1.6-0.3-3,0.1-4,1.4c-0.9,1.2-1.8,2.4-2.6,3.6
			c-1.4,2-3,3.7-5.2,4.8c-2.2,1.1-4.1,0.8-6-0.6c-0.8-0.6-1.6-1.3-2.5-1.8c-2.2-1.2-3.9-0.9-5.5,1c-0.6,0.7-1.1,1.6-1.7,2.3
			c-0.5,0.6-1,1.3-1.6,1.9c-0.8,0.8-1.8,1-2.8,0.4c-1.1-0.6-2.2-1.2-3.5-1.9c-2.4,2.6-4.6,5-6.8,7.3c-3.7,3.9-7.4,7.7-11.2,11.5
			c-1.8,1.8-4,2.9-6.4,3.9c-4.9,2-9.7,4.4-14.6,6.6c-0.6,0.3-1.2,0.5-1.7,0.8c-0.1-0.1-0.1-0.3-0.2-0.4c2.2-1.1,4.3-2.2,6.5-3.2
			c3.9-1.8,7.9-3.4,11.7-5.4c2.1-1.1,4-2.6,5.6-4.3c4.5-4.8,8.9-9.8,13.3-14.7c0.9-1,1.8-2,2.7-3c0.6-0.7,1.3-0.9,2.1-0.4
			c0.8,0.5,1.6,0.9,2.3,1.3c1.3,0.7,1.7,0.6,2.7-0.5c0.4-0.5,0.7-1.1,1.1-1.6c0.6-0.8,1.1-1.6,1.8-2.3c2.1-2.2,4.4-2.6,7-1.1
			c0.9,0.5,1.8,1.1,2.6,1.8c1.7,1.4,3.4,1.2,5.2,0.2c1.9-1.1,3.1-2.8,4.2-4.5c0.6-0.9,1.2-1.8,1.9-2.7c1.7-2.1,3.8-2.9,6.5-2.4
			c0.7,0.1,1.3,0.2,2,0.4c1.3,0.4,2.3,0,3.1-1.1c1-1.4,2-2.8,3-4.1c0.6-0.7,1.3-1.4,2.1-2c1.4-1,3-1.2,4.4-0.2
			c2.4,1.6,4.9,1.5,7.5,1.2c8.2-1,16.5-1.9,24.8-1.7c8,0.2,15.8,1.3,23.3,4.3c5,2,9.7,4.6,13.2,8.8c3.9,4.7,4.6,10,3,15.7
			c-0.1,0.2-0.2,0.4-0.5,0.9c0.1-0.9,0.1-1.4,0.2-1.9c1.3-7-0.8-12.7-6.5-17.1c-5.5-4.1-11.7-6.4-18.3-7.6
			C328.5,223.9,320.9,223.7,313.3,224.2z"/>
		<path id="XMLID_22_" class="st5" d="M314.8,498.2c-10.2-0.8-15.5,1.8-17.3,2.9c-0.3,0-0.5,0-0.7,0c-6.2,1.5-12.4,2.1-18.7,2.1
			c-4.6,0.1-8.1-1.8-11-5.3c-2.4-3-4.3-6.2-5.9-9.7c-0.6-1.3-1.2-2.6-1.8-3.8c-0.8-1.6-1.6-1.7-2.5-0.2c-0.5,0.8-0.9,1.7-1.1,2.6
			c-0.7,3.1-1.3,6.2-1.9,9.4c-0.3,1.4-0.4,2.8-0.6,4.2c-0.2,0-0.4,0-0.6,0c-0.4-1-0.9-2-1.2-3c-1.5-5.4-3.1-10.8-4.5-16.3
			c-0.4-1.8-1.2-2.9-2.8-3.7c-1.9-0.9-3.7-1.9-5.5-2.9c-1.6-0.9-3.3-1.8-4.9-2.7c0,0-0.3-3.7-3.1-6.8c-2.8-3.1-21.7-12.7-30.7-18.9
			c-4.2-2.9-10.2-10.6-15.9-20.2l4.4-0.9c0.4,0.5,0.9,0.4,2.1,0c3.4-0.9,6.7-1.7,10.1-2.6c1.9-0.5,2.1-0.9,1.3-2.6
			c-3.6-7.6-5.8-15.6-7.1-23.8l3.3-0.3c0.5,3.2,1.4,6.4,2.4,9.5c2.4,7.4,5.1,14.6,8.5,21.5c4.3,8.7,9.6,16.7,16.3,23.8
			c2.5,2.7,5,5.5,7.4,8.3c3.3,3.8,7.4,6.3,12.3,7.6c6.2,1.7,12.4,3.2,18.4,5.3c15.7,5.6,30.8,12.5,44.7,21.8
			C310.4,495.2,312.5,496.7,314.8,498.2z"/>
		<path id="XMLID_21_" d="M194.7,359.3c0.1-0.4,0.2-0.8,0.3-1.2c0,0.5-0.1,0.9-0.2,1.4C194.8,359.5,194.8,359.4,194.7,359.3z"/>
		<path id="XMLID_20_" class="st5" d="M329.3,235.7c19.8-1.6,17,27.6,14,34.4c-9.1,4.1-18.4,7.9-27.6,11.6
			c-9.6,3.9-19.2,7.9-28.8,11.8c-1.2,0.5-1.7,1.1-2.1,2.5c-0.8,2.4-2,4.8-3.4,7c-3.7,6.1-8.2,11.7-13.1,16.9
			c-3.4,3.6-7,7.1-10.5,10.5c-0.7,0.7-1.6,1.2-2.7,2c-0.5-2.6-0.2-4.8,0.1-6.9c0.7-5.1,1.5-10.3,2.2-15.4c0.1-0.7-0.1-1.5-0.5-2
			c-0.2-0.3-1.3-0.1-1.8,0.2c-9,4.7-17.8,9.5-25.6,16.1c-3.6,3.1-6.6,6.8-9.6,10.5c-7.4,9.4-13.5,19.6-17.7,30.8
			c-3.3,8.7-5,17.7-4.3,27c0.1,1.1,0.2,2.2,0.4,3.3l-3.3,0.3c-0.6-3.7-1-7.5-1.3-11.3c-0.4-6.4-0.3-12.9,0.4-19.3c0.2-2,0.4-4,0.7-6
			c0,0,0,0,0,0c0.1-0.5,0.1-0.9,0.2-1.4c-0.1,0.4-0.2,0.8-0.3,1.2c-0.2-0.2-1-0.2-3.5,1.7c-0.2,0.4-0.4,0.9-0.6,1.3
			c-2.4,6.7-4.2,13.4-5.6,20.4c-1.9,9.7-2.8,19.4-1,29.1c0.8,4.3,2,8.4,4,12.2c0.3,0.5,0.5,0.9,0.7,1.1l-4.4,0.9
			c-6.5-10.8-12.6-24-15.4-35.2c-5.3-21.1,3.4-35.9,13.9-69.1c10.5-33.1,50.2-51.1,63.5-61C259.6,250.9,309.5,237.3,329.3,235.7z"/>
		<linearGradient id="XMLID_119_" gradientUnits="userSpaceOnUse" x1="185.052" y1="391.1036" x2="199.9807" y2="391.1036">
			<stop  offset="0" style="stop-color:#FFFFFF"/>
			<stop  offset="0.1128" style="stop-color:#CAD7E5"/>
			<stop  offset="0.2339" style="stop-color:#98B2CC"/>
			<stop  offset="0.358" style="stop-color:#6D92B7"/>
			<stop  offset="0.4828" style="stop-color:#4A77A6"/>
			<stop  offset="0.6085" style="stop-color:#2F6398"/>
			<stop  offset="0.7356" style="stop-color:#1B558F"/>
			<stop  offset="0.865" style="stop-color:#104C89"/>
			<stop  offset="1" style="stop-color:#0C4987"/>
			<stop  offset="1" style="stop-color:#000000"/>
		</linearGradient>
		<path id="XMLID_19_" class="st6" d="M200,420.6c-3.3,0.8-6.3,1.6-9.3,2.3c-0.4,0.1-0.9-0.3-1.2-0.7c-0.3-0.4-0.5-0.9-0.7-1.4
			c-3.8-9.1-4.1-18.6-3.4-28.2c0.7-9.5,2.7-18.8,5.2-27.9c0.3-1.2,0.6-2.4,1-3.6l-0.4-0.1c2.5-1.9,3.3-1.9,3.5-1.7
			C190.3,380.2,191.6,400.6,200,420.6z"/>
		<path id="XMLID_18_" d="M202.2,420c0.8,1.7,0.6,2.1-1.3,2.6c-3.4,0.9-6.7,1.8-10.1,2.6c-1.2,0.3-1.7,0.4-2.1,0
			c-0.2-0.2-0.4-0.6-0.7-1.1c-2-3.9-3.2-8-4-12.2c-1.7-9.8-0.8-19.5,1-29.1c1.3-6.9,3.2-13.7,5.6-20.4c0.2-0.5,0.4-0.9,0.6-1.3
			l0.4,0.1c-0.3,1.2-0.6,2.4-1,3.6c-2.6,9.2-4.5,18.4-5.2,27.9c-0.7,9.6-0.4,19.1,3.4,28.2c0.2,0.5,0.3,1,0.7,1.4
			c0.3,0.3,0.9,0.7,1.2,0.7c3-0.7,6-1.5,9.3-2.3c-8.4-20.1-9.7-40.5-5.2-61.3c0.1,0.1,0.1,0.2,0.1,0.2c0,0,0,0,0,0
			c-0.2,2-0.4,4-0.7,6c-0.7,6.4-0.8,12.9-0.4,19.3c0.3,3.8,0.7,7.6,1.3,11.3C196.3,404.4,198.6,412.4,202.2,420z"/>
		<path id="XMLID_17_" d="M181.3,292.4c0,0-0.1,0.1-0.1,0.1C181.2,292.4,181.2,292.4,181.3,292.4L181.3,292.4z"/>
		<linearGradient id="XMLID_121_" gradientUnits="userSpaceOnUse" x1="143.933" y1="362.4999" x2="194.5823" y2="362.4999">
			<stop  offset="0" style="stop-color:#FFFFFF"/>
			<stop  offset="0.1566" style="stop-color:#9BB4CE"/>
			<stop  offset="0.326" style="stop-color:#35689B"/>
			<stop  offset="0.402" style="stop-color:#0C4987"/>
			<stop  offset="0.6432" style="stop-color:#0C4987"/>
			<stop  offset="0.6645" style="stop-color:#0C4987"/>
			<stop  offset="0.794" style="stop-color:#0C4987"/>
			<stop  offset="0.8566" style="stop-color:#527EAA"/>
			<stop  offset="1" style="stop-color:#FFFFFF"/>
			<stop  offset="1" style="stop-color:#0C4987"/>
			<stop  offset="1" style="stop-color:#0C4987"/>
			<stop  offset="1" style="stop-color:#0C4987"/>
		</linearGradient>
		<path id="XMLID_16_" class="st7" d="M190.6,447c1.3,1.3,2.6,2.5,4,3.8l-9,5.6c-8.9-8.9-16.5-18.8-22.7-30c-4-7.2-7-14.9-9.6-22.7
			c-4.1-12.3-7.1-25-8.5-37.9c-0.9-8.7-1-17.5-0.5-26.2c1-15.3,4.1-30.3,8.6-44.9c1.4-4.7,3.1-9.3,4.6-14c0.5-1.5,1.3-2.1,2.7-2.5
			c9.9-3.1,19.8-6.2,29.7-9.4l2.6,7.9c-7.3,6.4-13.3,18.5-15,22.2c-3.5,6.6-7.1,13.1-10.3,19.8c-8.6,17.8-10.7,36.6-8.5,56
			c1.3,11,3.8,21.8,7.5,32.3C171.5,422,179.3,435.6,190.6,447z"/>
		<path id="XMLID_15_" class="st8" d="M289.4,225c1.8,0.9,3.7,1.3,5.8,1c6-0.7,12.1-1.5,18.1-1.9c7.6-0.5,15.1-0.3,22.6,1.2
			c6.6,1.3,12.9,3.5,18.3,7.6c5.7,4.4,7.8,10.1,6.5,17.1c-0.1,0.5-0.1,1-0.2,1.9c0,0,1.1,6.5-4,11.8c-4.4,2.2-8.8,4.3-13.2,6.4
			c3.1-6.8,5.8-35.9-14-34.4c-19.8,1.6-69.7,15.2-83,25.1c-13.3,9.9-53.1,27.9-63.5,61c-10.5,33.1-19.1,48-13.9,69.1
			c2.8,11.2,8.9,24.4,15.4,35.2c5.7,9.6,11.7,17.3,15.9,20.2c9,6.2,27.9,15.8,30.7,18.9c2.8,3.1,3.1,6.8,3.1,6.8
			c-8.4-4.7-16.9-9.3-25.3-14.1c-10.6-6-19-14.4-26.1-24.2c-7.4-10.1-12.5-21.4-16.2-33.3c-3.3-10.5-5.5-21.2-6.4-32.2
			c-0.5-6.7-0.5-13.5,0.2-20.2c0.9-8.9,3-17.5,6.3-25.8c3.3-8.2,7.5-16,11.7-23.7c1.1-2,2-4,3-6c0,0,0.1-0.1,0.1-0.1l0,0
			c0,0,0,0.1-0.1,0.1c-0.2,0.2-0.5,0.4-0.6,0.6c-1,1.9-2,3.7-3,5.6c1.6-3.7,7.7-15.7,15-22.2c1.7-1.5,3.5-2.7,5.3-3.4
			c0.6-0.3,1.2-0.5,1.7-0.8c4.9-2.2,9.7-4.6,14.6-6.6c2.4-1,4.6-2.1,6.4-3.9c3.8-3.8,7.5-7.6,11.2-11.5c2.2-2.4,4.4-4.8,6.8-7.3
			c1.3,0.7,2.4,1.3,3.5,1.9c1,0.5,2,0.4,2.8-0.4c0.6-0.6,1.1-1.2,1.6-1.9c0.6-0.8,1.1-1.6,1.7-2.3c1.7-1.9,3.3-2.2,5.5-1
			c0.9,0.5,1.7,1.2,2.5,1.8c1.9,1.4,3.9,1.7,6,0.6c2.2-1.1,3.8-2.8,5.2-4.8c0.9-1.2,1.7-2.4,2.6-3.6c1-1.3,2.4-1.7,4-1.4
			c0.7,0.1,1.5,0.1,2.2,0.3c2.4,0.9,4-0.2,5.3-2c1-1.5,2-3,3.2-4.3C286.3,223.8,287,223.7,289.4,225z"/>
		<path id="XMLID_14_" d="M297.5,501.2c-0.5,0.3-0.7,0.5-0.7,0.5c-6,1.6-12.2,2.5-18.5,2.7c-5.1,0.2-9-2-12.2-5.7
			c-2.4-2.8-4.3-6-6-9.3c-0.6-1.1-1.2-2.2-1.7-3.3c-0.2,0-0.3,0-0.5,0c-0.4,1.6-1,3.2-1.2,4.9c-0.5,4.3-0.8,8.7-1.2,13.1
			c-0.1,0.9,0.2,2-0.9,2.3c-1.2,0.3-1.5-0.8-1.8-1.6c-1.7-3.9-3.4-7.7-4.8-11.7c-1.2-3.5-2.1-7.1-2.9-10.7c-0.3-1.4-1-2.3-2.3-2.9
			c-11.8-5.9-23.5-12.1-34.9-18.8c-4.7-2.8-9.1-6-13.2-9.6c-1.4-1.2-2.7-2.5-4-3.8c-11.3-11.5-19.1-25.1-24.5-40.2
			c-3.7-10.5-6.2-21.2-7.5-32.3c-2.3-19.4-0.1-38.3,8.5-56c3.3-6.7,6.8-13.2,10.3-19.8c1-1.9,2-3.7,3-5.6c0.1-0.3,0.4-0.4,0.6-0.6
			c-1,2-1.9,4-3,6c-4.2,7.8-8.4,15.5-11.7,23.7c-3.4,8.3-5.5,16.9-6.3,25.8c-0.7,6.7-0.7,13.5-0.2,20.2c0.8,11,3.1,21.7,6.4,32.2
			c3.7,11.9,8.9,23.1,16.2,33.3c7.1,9.8,15.6,18.1,26.1,24.2c8.4,4.8,16.8,9.4,25.3,14.1c1.6,0.9,3.3,1.8,4.9,2.7
			c1.8,1,3.7,2,5.5,2.9c1.6,0.8,2.3,1.9,2.8,3.7c1.4,5.5,2.9,10.9,4.5,16.3c0.3,1,0.8,2,1.2,3c0.2,0,0.4,0,0.6,0
			c0.2-1.4,0.3-2.8,0.6-4.2c0.6-3.1,1.2-6.3,1.9-9.4c0.2-0.9,0.7-1.8,1.1-2.6c0.9-1.5,1.7-1.4,2.5,0.2c0.6,1.3,1.2,2.6,1.8,3.8
			c1.6,3.4,3.5,6.7,5.9,9.7c2.8,3.5,6.3,5.4,11,5.3c6.3-0.1,12.6-0.6,18.7-2.1C297,501.1,297.1,501.1,297.5,501.2z"/>
		<linearGradient id="XMLID_122_" gradientUnits="userSpaceOnUse" x1="136.0792" y1="218.4014" x2="422.7593" y2="218.4014">
			<stop  offset="0" style="stop-color:#FFFFFF"/>
			<stop  offset="3.585577e-003" style="stop-color:#FDFEFE"/>
			<stop  offset="0.1192" style="stop-color:#C5D4E2"/>
			<stop  offset="0.2382" style="stop-color:#94AFCA"/>
			<stop  offset="0.3584" style="stop-color:#6A90B5"/>
			<stop  offset="0.4801" style="stop-color:#4876A5"/>
			<stop  offset="0.6035" style="stop-color:#2E6298"/>
			<stop  offset="0.7294" style="stop-color:#1B548E"/>
			<stop  offset="0.8595" style="stop-color:#104C89"/>
			<stop  offset="1" style="stop-color:#0C4987"/>
			<stop  offset="1" style="stop-color:#0C4987"/>
			<stop  offset="1" style="stop-color:#0C4987"/>
		</linearGradient>
		<path id="XMLID_7_" class="st9" d="M262.4,210.5c0.1-0.5,0.1-1.4-0.1-1.6c-0.5-0.3-1.3-0.3-1.8,0c-2,0.8-3.1,2.4-4.1,4.2
			c-3.5,6.4-3,13.1-1.4,19.9c0.2-3.1,1-6.1,2.1-9c1.2-3.3,2.7-6.6,4-9.9C261.5,212.9,262,211.7,262.4,210.5z M273.7,206.3
			c0.3-0.8,0.5-1.8-0.3-2.5c-0.8-0.7-1.8-0.6-2.5-0.1c-1.2,0.8-2.4,1.6-3.2,2.6c-2.4,3.2-3.6,7-3.9,11c-0.3,4,0.5,7.8,1,11.7
			c0.1,0.4,0.3,0.8,0.5,1.2l0.4-0.1c0.2-1.2,0.2-2.5,0.6-3.6c1.2-3.8,2.4-7.5,3.7-11.2C271.1,212.2,272.5,209.3,273.7,206.3z
			 M276.2,225.6c0.8-5.1,2.9-9.8,5.1-14.4c1.7-3.6,3.5-7.2,5.2-10.8c0.4-0.9,0.7-1.9-0.2-2.7c-0.8-0.7-1.7-0.4-2.5,0
			c-0.7,0.4-1.5,0.8-2,1.4c-1.1,1.3-2.2,2.6-3,4.1c-4.1,7.1-3.7,14.9-3.1,23.2C276.1,225.9,276.2,225.8,276.2,225.6z M246.2,234.4
			c0,0.2,0.2,0.4,0.5,0.9c0.4-3,0.6-5.4,1.1-7.8c0.5-2.5,1.4-4.8,2.1-7.2c0.4-1.5,1-3,1.3-4.5c0.1-0.6,0.1-1.6-0.3-2
			c-0.7-0.7-1.6-0.2-2.2,0.4c-0.7,0.7-1.4,1.5-1.9,2.4c-0.5,1-0.9,2-1.2,3.1C244.3,224.6,245.1,229.5,246.2,234.4z M296.8,223.9
			c-2.6,0.3-5.1,0.4-7.5-1.2c-1.4-1-3-0.8-4.4,0.2c-0.8,0.6-1.5,1.2-2.1,2c-1.1,1.3-2,2.7-3,4.1c-0.8,1.1-1.8,1.5-3.1,1.1
			c-0.6-0.2-1.3-0.3-2-0.4c-2.6-0.5-4.8,0.3-6.5,2.4c-0.7,0.9-1.3,1.8-1.9,2.7c-1.2,1.7-2.3,3.4-4.2,4.5c-1.8,1-3.5,1.2-5.2-0.2
			c-0.8-0.7-1.7-1.3-2.6-1.8c-2.7-1.5-4.9-1.1-7,1.1c-0.7,0.7-1.2,1.5-1.8,2.3c-0.4,0.5-0.7,1.1-1.1,1.6c-0.9,1.2-1.3,1.2-2.7,0.5
			c-0.8-0.4-1.6-0.8-2.3-1.3c-0.8-0.5-1.5-0.4-2.1,0.4c-0.9,1-1.8,2-2.7,3c-4.4,4.9-8.8,9.9-13.3,14.7c-1.6,1.7-3.5,3.3-5.6,4.3
			c-3.8,2-7.8,3.6-11.7,5.4c-2.2,1-4.3,2.1-6.5,3.2c0.1,0.1,0.1,0.3,0.2,0.4c-1.8,0.7-3.6,1.9-5.3,3.4l-2.6-7.9
			c0.9-0.3,1.8-0.6,2.8-0.9c5.7-1.9,11.3-4.2,16.5-7.1c0.4-0.3,0.9-0.6,1.3-0.9c-0.3-0.1-0.4-0.2-0.5-0.1
			c-6.3,3.1-12.9,5.3-19.6,7.4c-9.5,3-19,5.9-28.6,8.6c-6.3,1.8-12.8,3.4-19.4,4.1c-2,0.2-4.1,0-6.2,0c-0.6-1.3,0.3-1.8,1.1-2.3
			c2.2-1.5,4.5-2.9,6.6-4.6c11-8.5,22.8-15.5,34.7-22.6c0.6-0.4,1.2-0.8,1.7-1.6c-1.6,0.8-3.1,1.5-4.7,2.2l-0.4-0.4
			c0.3-0.4,0.4-1,0.8-1.3c5.7-5.1,11.3-10.4,17.2-15.1c12.9-10.4,26.2-20.3,40.4-28.8c10.3-6.2,21-11.7,32.2-16.3
			c17.3-7.1,34.8-13.8,52.6-19.6c14.4-4.6,28.9-8.5,43.8-10.8c10.4-1.6,20.8-2,31.3-1.4c6.2,0.4,12.3,1.3,18,3.9
			c4.2,1.9,7.7,4.4,9.8,8.7c1.4,3,1.6,6.2,1.2,9.4c-1,7.3-3.1,14.2-7.7,20.2c-1.7,2.2-3.6,4.3-5.4,6.5c-3,3.7-5.5,7.7-7.4,12.1
			c-0.2,0.5-0.5,0.9-0.7,1.4c-0.1,0.1-0.3,0.1-0.5,0.2c-0.2-0.5-0.4-1.1-0.5-1.6c-2.1-9.1-7.7-15.2-16.2-18.9
			c-5.6-2.4-11.6-3.4-17.8-3.7c-8-0.3-15.8,1.2-23.4,3.6c1.8-0.4,3.7-0.7,5.5-1.1c10.2-2.2,20.3-2.3,30.4,0.7
			c6.7,2,12.3,5.5,16.2,11.5c2,3.1,2.9,6.6,3.6,10.2c0.9,4.2-0.5,7.7-2.5,11.1c-3,5.1-7,9.4-11.3,13.4c-8.4,7.9-18.1,13.6-28.3,18.8
			c5.1-5.3,4-11.8,4-11.8c0.3-0.5,0.4-0.7,0.5-0.9c1.6-5.7,0.9-11.1-3-15.7c-3.5-4.2-8.2-6.8-13.2-8.8c-7.5-3-15.3-4.1-23.3-4.3
			C313.3,222,305,222.9,296.8,223.9z M307.5,174.6c0.3,2,0.9,3.4,1.9,4.6c1.8,2.3,4.1,3.2,6.9,2.4c4-1.2,6.9-3.9,9.5-7
			c0.1-0.1,0.2-0.2,0.2-0.4c0.6-1.4,0.1-2.6-1.4-2.9c-0.9-0.2-2-0.2-2.9,0C317.1,172.4,312.4,173.5,307.5,174.6z"/>
		<path id="XMLID_3_" d="M235.3,202c5-3,10.1-5.7,15.2-8.5c0-0.1-0.1-0.3-0.1-0.4c-0.6-0.1-1.2-0.2-1.8-0.2c-4,0.2-8,0.4-12,0.7
			c-9,0.6-17.8,2-26.6,3.7c-16.8,3.4-33,8.6-48.3,16.5c-1,0.5-1.9,1.1-2.9,1.7c3.6,4.8,7.2,9.2,10.4,13.9c3.3,4.7,6.1,9.8,9.3,14.8
			c4.5-3.9,8.9-7.8,13.4-11.5c4.6-3.8,9.2-7.5,14-11c4.7-3.5,9.4-7,14.3-10.2C225.1,208.1,230.1,205,235.3,202z M302.7,556.2
			c0-0.9,0-1.5,0-2.1c-0.3-4.2-1.6-8.1-3.1-12c-4-10.2-9.4-19.7-15.5-28.8c-0.3-0.4-0.5-0.7-0.7-1.1c-0.6-1.1-0.3-1.7,0.9-1.8
			c0.5,0,1,0.1,1.6,0.1c3.3,0,6.7,0.2,10,0c8.5-0.5,14.4-5.1,19.1-12.3c-2.3-1.6-4.4-3-6.4-4.4c-13.9-9.3-29-16.2-44.7-21.8
			c-6-2.1-12.2-3.6-18.4-5.3c-4.9-1.3-9-3.8-12.3-7.6c-2.4-2.8-4.9-5.6-7.4-8.3c-6.6-7.1-12-15.1-16.3-23.8
			c-3.4-6.9-6.2-14.1-8.5-21.5c-1-3.1-1.9-6.3-2.4-9.5c-0.2-1.1-0.3-2.2-0.4-3.3c-0.8-9.4,1-18.3,4.3-27
			c4.2-11.2,10.3-21.4,17.7-30.8c2.9-3.7,5.9-7.4,9.6-10.5c7.7-6.6,16.6-11.4,25.6-16.1c0.5-0.3,1.5-0.4,1.8-0.2
			c0.4,0.5,0.6,1.3,0.5,2c-0.7,5.1-1.6,10.3-2.2,15.4c-0.3,2.1-0.5,4.3-0.1,6.9c1.1-0.8,2-1.3,2.7-2c3.5-3.5,7.2-6.9,10.5-10.5
			c4.9-5.2,9.3-10.8,13.1-16.9c1.3-2.2,2.6-4.5,3.4-7c0.4-1.3,0.9-2,2.1-2.5c9.6-3.9,19.2-7.9,28.8-11.8c9.3-3.7,18.5-7.5,27.6-11.6
			c4.5-2,8.9-4.1,13.2-6.4c10.1-5.2,19.9-11,28.3-18.8c4.3-4,8.2-8.3,11.3-13.4c2.1-3.5,3.4-7,2.5-11.1c-0.7-3.6-1.6-7.1-3.6-10.2
			c-3.8-6-9.5-9.5-16.2-11.5c-10-3-20.2-2.8-30.4-0.7c-1.8,0.4-3.7,0.7-5.5,1.1c7.6-2.4,15.4-3.9,23.4-3.6
			c6.2,0.2,12.1,1.2,17.8,3.7c8.4,3.6,14,9.8,16.2,18.9c0.1,0.5,0.4,1.1,0.5,1.6c0.3-0.1,0.4-0.1,0.5-0.2c0.3-0.4,0.5-0.9,0.7-1.4
			c1.9-4.4,4.4-8.4,7.4-12.1c1.8-2.2,3.7-4.3,5.4-6.5c4.6-5.9,6.7-12.9,7.7-20.2c0.5-3.2,0.2-6.4-1.2-9.4c-2-4.3-5.6-6.8-9.8-8.7
			c-5.7-2.6-11.8-3.5-18-3.9c-10.5-0.7-20.9-0.2-31.3,1.4c-14.9,2.3-29.5,6.2-43.8,10.8c-17.8,5.7-35.3,12.5-52.6,19.6
			c-11.1,4.6-21.8,10.1-32.2,16.3c-14.3,8.5-27.5,18.4-40.4,28.8c-5.9,4.8-11.5,10.1-17.2,15.1c-0.4,0.3-0.5,0.9-0.8,1.3l0.4,0.4
			c1.6-0.8,3.1-1.5,4.7-2.2c-0.4,0.8-1,1.2-1.7,1.6c-11.9,7.1-23.7,14.1-34.7,22.6c-2.1,1.6-4.4,3-6.6,4.6c-0.8,0.5-1.7,1-1.1,2.3
			c2.1,0,4.2,0.2,6.2,0c6.6-0.7,13-2.3,19.4-4.1c9.6-2.8,19.1-5.7,28.6-8.6c6.7-2.1,13.3-4.3,19.6-7.4c0.1,0,0.3,0.1,0.5,0.1
			c-0.5,0.3-0.9,0.6-1.3,0.9c-5.2,3-10.8,5.2-16.5,7.1c-0.9,0.3-1.8,0.6-2.8,0.9c-9.9,3.3-19.8,6.3-29.7,9.4
			c-1.4,0.4-2.2,1.1-2.7,2.5c-1.4,4.7-3.2,9.3-4.6,14c-4.5,14.7-7.6,29.6-8.6,44.9c-0.6,8.7-0.5,17.5,0.5,26.2
			c1.4,13,4.3,25.6,8.5,37.9c2.6,7.8,5.6,15.5,9.6,22.7c6.2,11.2,13.9,21.1,22.7,30c4,4.1,8.3,7.9,12.8,11.5
			c6.9,5.6,14.3,10.6,21.9,15.3c1.8,1.1,3,2.6,3.7,4.6c0.8,2.2,1.7,4.5,2.6,6.6c3.8,9.3,8.8,17.8,14.6,26c2.6,3.7,5.6,7.3,8.8,10.6
			c4.3,4.5,9.3,8.3,14.6,11.6c9.9,6.2,20.4,10.6,31.9,12.7C298.4,555.7,300.4,555.9,302.7,556.2z M305,552.5c0.4,2,0.7,4.1-0.6,6
			h-4.9c-0.3-0.1-0.7-0.4-1-0.4c-5.1-0.7-10.1-2-14.9-3.7c-14.5-5.1-27.2-12.9-37.7-24.2c-5.2-5.6-9.3-12.1-13.3-18.6
			c-4.2-6.9-7.7-14.1-10.3-21.7c-0.8-2.4-2.2-4-4.3-5.4c-4.4-2.8-8.6-5.8-13-8.6c-0.5-0.4-1.1-0.7-1.7-1c-0.2-0.2-0.4-0.3-0.7-0.5
			c-0.4-0.5-0.8-0.9-1.4-1.4c-1.5-1.3-3.1-2.3-4.7-3.3c-0.3-0.3-0.6-0.6-1-0.8c-0.6-0.7-1.2-1.3-1.8-1.9c-4.4-4.1-8.7-8.3-13.3-12.2
			c-4.6-3.9-7.9-9.5-11.6-14.4c-1.7-2.8-3.4-5.5-5.2-8.2c-0.5-0.8-1.2-1.6-1.8-2.5c-1.2-2.2-2.4-4.5-3.6-6.9
			c-0.1-0.5-0.2-0.9-0.4-1.3c-0.1-0.5-0.4-0.9-0.7-1.3c0-0.1-0.1-0.2-0.1-0.3c-2.4-6.4-4.9-12.8-7-19.3c-4.6-14.1-7.5-28.6-8.2-43.4
			c-0.7-14.5,0.7-28.8,3.7-43c2.3-11,5.4-21.8,9.1-32.3c0.2-0.7,0.4-1.3,0.6-2.2c-2.8,0.6-5.3,1.2-7.8,1.6c-3.3,0.5-6.6,0.8-10,0.9
			c-1.6,0.1-3.3-0.5-3.8-2.5c-0.5-1.9,0.7-2.9,2-3.8c8.2-5.5,16.4-11,24.6-16.5c2.2-1.5,4.6-2.7,6.9-4.1c0.5-0.3,1-0.8,1.4-1.3
			c0.5-0.6,0.8-1.4,1.4-2c2-2.1,4-4.2,6.2-6.6c-1.3-2.3-2.5-4.9-3.9-7.3c-4.5-7.6-9.8-14.6-15.4-21.3c-1.5-1.8-1.4-2.3,0.6-3.4
			c3.6-1.9,7.2-3.8,11-5.5c24.4-10.9,50.1-16.1,76.7-17.5c3-0.1,6.1-0.3,9.1-0.2c1.1,0,2.1,0.2,3.2-0.3
			c17.9-7.8,36.1-14.9,54.7-21.1c17.7-5.9,35.6-11,54.2-13.3c11.3-1.4,22.5-1.8,33.8-0.2c5.4,0.8,10.6,2.1,15.4,4.9
			c7.3,4.3,10.7,10.7,9.6,19c-1.2,9-4.2,17.4-10.7,24.3c-5.3,5.7-9.3,12.3-12,19.7c-2.6,7.5-6.8,14-12.3,19.7
			c-4.7,4.9-9.9,9.2-15.5,13c-8.3,5.5-16.9,10.3-26,14.2c-14.4,6.3-29,12.3-43.5,18.4c-5.3,2.2-10.6,4.3-15.9,6.5
			c-0.8,0.3-1.6,0.6-2,1.6c-2.1,5.6-5.5,10.4-9,15c-5.4,7.1-11.4,13.8-18,19.7c-1.2,1.1-2.5,2.1-3.9,3c-1.9,1.2-3.3,0.5-3.7-1.7
			c-0.2-1.1-0.3-2.2-0.2-3.3c0.5-4.5,1-9,1.5-13.5c0.2-1.4,0.4-2.9,0.7-4.7c-0.9,0.4-1.5,0.7-2.1,1c-4.1,2.4-8.3,4.7-12.3,7.2
			c-6.7,4.1-12.5,9.3-17.3,15.6c-2,2.6-4,5.2-5.8,7.9c-6.3,9.2-11.5,18.9-14.5,29.7c-2.2,7.8-3,15.6-1.5,23.6
			c0.8,4.3,2.2,8.5,3.5,12.6c5.4,16,13.1,30.7,25.2,42.8c0.2,0.2,0.4,0.4,0.6,0.5c0.6,1,1.5,1.8,2.4,2.6c4.2,6.5,12.5,9.1,19.4,11.7
			c5.1,1.9,10.3,2.9,15.5,4.4c4,1.2,7.5,3,11.4,4.1c1.1,0.7,2.3,1.2,3.5,1.7c3.2,1.8,6.5,3.3,9.8,4.8c0.2,0.2,0.5,0.4,0.8,0.5
			c1.8,0.8,3.4,1.9,5.1,2.9c0.6,0.4,1.2,0.6,1.9,0.9c0.2,0.1,0.8,0.4,1.1,0.6c0.2,0.2,0.4,0.3,0.6,0.4c0,0,0.1,0,0.1,0
			c0.6,0.6,1.3,1.1,2.1,1.4c3.9,2.6,7.9,5.2,11.8,7.8c0.4,0.2,0.7,0.5,1.1,0.8c0.8,0.7,1,1.4,0.4,2.3c-5,7.8-11.6,13.1-21.1,13.9
			c-2.9,0.2-5.8,0-9.1,0c0.6,1,0.9,1.7,1.4,2.3c5.3,8.3,10.1,16.8,13.5,26.1C303.2,545,304.1,548.8,305,552.5z"/>
	</g>
	<g id="XMLID_112_">
		<path id="XMLID_37_" class="st10" d="M275.8,226.4c-0.6-8.3-1-16.1,3.1-23.2c0.8-1.5,1.9-2.8,3-4.1c0.5-0.6,1.3-1,2-1.4
			c0.8-0.4,1.7-0.7,2.5,0c0.9,0.8,0.6,1.8,0.2,2.7c-1.7,3.6-3.5,7.2-5.2,10.8c-2.2,4.6-4.3,9.3-5.1,14.4
			C276.2,225.8,276.1,225.9,275.8,226.4z"/>
		<path id="XMLID_36_" class="st10" d="M265.3,230.2c-0.2-0.4-0.4-0.8-0.5-1.2c-0.5-3.9-1.3-7.8-1-11.7c0.3-4,1.4-7.7,3.9-11
			c0.8-1.1,2.1-1.9,3.2-2.6c0.8-0.5,1.7-0.5,2.5,0.1c0.8,0.7,0.6,1.6,0.3,2.5c-1.2,3-2.6,6-3.7,9c-1.4,3.7-2.5,7.4-3.7,11.2
			c-0.4,1.2-0.4,2.4-0.6,3.6L265.3,230.2z"/>
		<path id="XMLID_35_" class="st10" d="M254.9,233c-1.6-6.8-2-13.5,1.4-19.9c1-1.8,2.1-3.4,4.1-4.2c0.5-0.2,1.3-0.2,1.8,0
			c0.3,0.2,0.3,1.1,0.1,1.6c-0.4,1.2-0.9,2.4-1.4,3.5c-1.3,3.3-2.8,6.6-4,9.9C256,226.8,255.1,229.8,254.9,233z"/>
		<path id="XMLID_34_" class="st10" d="M246.6,235.2c-0.3-0.5-0.4-0.7-0.5-0.9c-1.1-4.9-1.9-9.7-0.6-14.7c0.3-1.1,0.6-2.1,1.2-3.1
			c0.5-0.9,1.1-1.7,1.9-2.4c0.6-0.6,1.5-1.1,2.2-0.4c0.4,0.4,0.5,1.4,0.3,2c-0.3,1.5-0.8,3-1.3,4.5c-0.7,2.4-1.5,4.8-2.1,7.2
			C247.2,229.8,247,232.3,246.6,235.2z"/>
		<path id="XMLID_33_" class="st11" d="M191.2,361c2.5-1.9,3.3-1.9,3.5-1.7c0.1,0.1,0.1,0.2,0.1,0.2"/>
		<path id="XMLID_32_" class="st11" d="M197.7,273.1c-1.8,0.7-3.6,1.9-5.3,3.4c-7.3,6.4-13.3,18.5-15,22.2c0,0,0,0,0,0.1"/>
	</g>
</g>
<ellipse id="XMLID_71_" transform="matrix(0.8269 0.5624 -0.5624 0.8269 348.0551 -64.2308)" class="st12" cx="278.4" cy="533.2" rx="19.6" ry="5.1"/>
<path id="XMLID_70_" class="st13" d="M169.1,218.2c-0.1,2.1,4.4,4.4,8.6,12.3c1,1.9,13.5-14.7,24.6-23.2
	C207.2,203.4,169.3,214.9,169.1,218.2z"/>
<path id="XMLID_69_" class="st14" d="M394.6,163.3c4.6-6.1,27.9,7,25.5,13.3C418.4,181.3,393.1,165.4,394.6,163.3z"/>
<ellipse id="XMLID_68_" transform="matrix(0.9762 -0.2168 0.2168 0.9762 -28.5408 79.0102)" class="st15" cx="345.8" cy="169.6" rx="9" ry="4"/>
<path id="XMLID_67_" class="st15" d="M269.1,288.3c-1,7.4-5.6,22.8-3.1,21.7c2.5-1.1,24.2-24.5,21.8-26.4
	C286.1,282.3,269.3,287,269.1,288.3z"/>
<path id="XMLID_66_" class="st16" d="M314.9,176c0,0.8,1.2,1.9,3.3,1.8c2.1-0.1,3.5-2.7,3.4-3.4c0-0.8-0.9-0.2-3-0.1
	C316.5,174.4,314.9,175.3,314.9,176z"/>
<path id="XMLID_65_" class="st17" d="M319.4,175.1c0,0.4-1.4,1.8-1.7,1.8s-0.6-0.3-0.6-0.7s0.3-0.7,0.6-0.7S319.4,174.7,319.4,175.1
	z"/>
<path id="XMLID_64_" class="st18" d="M143.6,275.7c-2,2.1,19.6-2.4,20.4-2.4c3.3-0.2-0.7-4.8-1.9-6.9
	C159.7,262.3,147,272,143.6,275.7z"/>
<path id="XMLID_63_" class="st19" d="M278.2,480c-4.8-2.7-2.3,14.9,0,16c2.3,1.1,18.3-0.7,21.8-1.9C303.5,492.7,280,481,278.2,480z"
	/>
<path id="XMLID_62_" class="st20" d="M155.8,354.8c0,13,5.4,37,3.5,37c-1.9,0-10.3-24-10.3-37c0-13,1.2-36,3.1-36
	C154,318.9,155.8,341.8,155.8,354.8z"/>
<path id="XMLID_61_" class="st19" d="M208.4,242.8c0,1.7-12.2,9.3-19,10.9c-5.3,1.2-17.7,1-16.3-0.2c2.8-2.3,10.1-3.3,15.1-5.2
	C193.9,246.1,208.4,241.1,208.4,242.8z"/>
<path id="XMLID_60_" class="st21" d="M329,248.5c-7.7,1.1-20.5,16-13.5,16.3c7,0.2,31.8-11.7,32-11.8
	C347.6,252.9,354.4,245,329,248.5z"/>
<path id="XMLID_59_" class="st22" d="M223.9,475.4c-4.3-1.8,13.1-3.1,12.4,3.2c-0.8,6.3-4.1,6.8-4.1,6.8
	C232.8,485.2,229.4,477.7,223.9,475.4z"/>
<path id="XMLID_58_" class="st23" d="M205.8,320c4.1,6.4,22.3-27.5,53.4-47.4s65.6-30.3,61.5-36.7c-4.1-6.4-41.1,4.8-72.2,24.7
	S201.7,313.6,205.8,320z"/>
<path id="XMLID_57_" class="st17" d="M226.6,458.9c-1.8,1.3-10.4-3.9-15.9-11.4c-5.4-7.5-7.2-16.6-5.4-17.9s4.8,8.1,10.3,15.6
	S228.4,457.6,226.6,458.9z"/>
<path id="XMLID_56_" class="st24" d="M178.6,293.6c-3.7,6.9-4.7,14.8-3.7,15.4c1,0.5,2.9-6.8,6.6-13.7c3.7-6.9,7.4-11.8,6.4-12.3
	C186.9,282.4,182.3,286.7,178.6,293.6z"/>
<path id="XMLID_55_" class="st25" d="M382.3,229.9c0.4,3.2-0.7,10.7,0.5,10.6c1.2-0.1,3.1-7.2,2.1-11.9c-0.6-3.1-3.8-8.2-5-7.9
	C378.8,221.1,381.6,224,382.3,229.9z"/>
<linearGradient id="XMLID_123_" gradientUnits="userSpaceOnUse" x1="81.6385" y1="196.3381" x2="126.3458" y2="196.3381">
	<stop  offset="0" style="stop-color:#FFFFFF"/>
	<stop  offset="0" style="stop-color:#9BB4CE"/>
	<stop  offset="0" style="stop-color:#35689B"/>
	<stop  offset="0" style="stop-color:#0C4987"/>
	<stop  offset="0.6432" style="stop-color:#0C4987"/>
	<stop  offset="0.6936" style="stop-color:#0C4987"/>
	<stop  offset="1" style="stop-color:#0C4987"/>
	<stop  offset="1" style="stop-color:#527EAA"/>
	<stop  offset="1" style="stop-color:#FFFFFF"/>
	<stop  offset="1" style="stop-color:#0C4987"/>
	<stop  offset="1" style="stop-color:#0C4987"/>
	<stop  offset="1" style="stop-color:#0C4987"/>
</linearGradient>
<path id="XMLID_78_" class="st26" d="M81.6,198.2c1.3-3.9,2.3-7.6,4.1-11c0.2-0.4,0.5-0.8,0.7-1.1c4.8-7.1,14.7-6.5,18.8,1
	c0.1,0.3,0.3,0.5,0.5,1c0.5-0.5,1-1,1.5-1.4c3.7-3.5,7.9-3.7,12.4-2c4.3,1.7,6.4,5,6.7,9.6c0.1,2.4-0.2,4.8-0.9,7.1
	c-1.1,3.4-2.2,6.7-3.4,10.4C108.5,207.3,95.2,202.8,81.6,198.2 M119.2,205.8c1.3-3.7,2.8-7.2,2.6-11c-0.2-3.1-1.8-5-4.6-6.1
	c-3-1.2-5.6-0.7-7.7,1.6c-2.7,3-3.6,6.8-4.9,10.7C109.7,202.6,114.4,204.2,119.2,205.8 M87.3,195.1c4.5,1.5,8.9,3,13.6,4.6
	c0.5-2,1.1-3.9,1.5-5.8c0.7-3.6-0.6-6-4-7.4c-0.8-0.3-1.6-0.5-2.4-0.7c-2.6-0.6-4.6,0.3-6,2.4C88.7,190.3,88,192.6,87.3,195.1"/>
<linearGradient id="XMLID_124_" gradientUnits="userSpaceOnUse" x1="74.526" y1="230.1246" x2="119.4429" y2="230.1246">
	<stop  offset="0" style="stop-color:#FFFFFF"/>
	<stop  offset="0" style="stop-color:#9BB4CE"/>
	<stop  offset="0" style="stop-color:#35689B"/>
	<stop  offset="0" style="stop-color:#0C4987"/>
	<stop  offset="0.6432" style="stop-color:#0C4987"/>
	<stop  offset="0.6936" style="stop-color:#0C4987"/>
	<stop  offset="1" style="stop-color:#0C4987"/>
	<stop  offset="1" style="stop-color:#527EAA"/>
	<stop  offset="1" style="stop-color:#FFFFFF"/>
	<stop  offset="1" style="stop-color:#0C4987"/>
	<stop  offset="1" style="stop-color:#0C4987"/>
	<stop  offset="1" style="stop-color:#0C4987"/>
</linearGradient>
<path id="XMLID_77_" class="st27" d="M74.5,243.6c0.2-1.6,0.3-3,0.5-4.6c2,0.2,3.7,0.3,5.4,0.5c7.3,0.8,14.7,1.7,22,2.5
	c0.6,0.1,1.2,0.1,1.8,0.1c4.6,0.2,7.8-1.8,9.7-5.9c1.8-3.9,1.1-8.8-1.7-11.9c-1.8-2-4.1-2.7-6.6-3c-5.6-0.7-11.2-1.3-16.8-1.9
	c-3.7-0.4-7.5-0.8-11.4-1.3c0.2-1.6,0.3-2.9,0.5-4.6c2.5,0.2,4.9,0.4,7.3,0.7c6.4,0.7,12.7,1.4,19.1,2.2c1,0.1,2.1,0.3,3.1,0.4
	c6,0.9,9.8,4.6,11.4,10.3c1.8,6.3,0.2,12-4.7,16.5c-2.3,2.1-5,3.4-8.2,3.2c-4.7-0.3-9.5-0.7-14.2-1.1c-5.2-0.5-10.3-1.2-15.5-1.7
	C75.7,243.8,75.3,243.7,74.5,243.6"/>
<linearGradient id="XMLID_125_" gradientUnits="userSpaceOnUse" x1="79.0839" y1="294.7393" x2="123.2154" y2="294.7393">
	<stop  offset="0" style="stop-color:#FFFFFF"/>
	<stop  offset="0" style="stop-color:#9BB4CE"/>
	<stop  offset="0" style="stop-color:#35689B"/>
	<stop  offset="0" style="stop-color:#0C4987"/>
	<stop  offset="0.6432" style="stop-color:#0C4987"/>
	<stop  offset="0.6936" style="stop-color:#0C4987"/>
	<stop  offset="1" style="stop-color:#0C4987"/>
	<stop  offset="1" style="stop-color:#527EAA"/>
	<stop  offset="1" style="stop-color:#FFFFFF"/>
	<stop  offset="1" style="stop-color:#0C4987"/>
	<stop  offset="1" style="stop-color:#0C4987"/>
	<stop  offset="1" style="stop-color:#0C4987"/>
</linearGradient>
<path id="XMLID_76_" class="st28" d="M109.8,276.6c1.9-0.5,3.3-0.9,4.7-1.3c1.1-0.2,1.7,0.5,2.3,1.2c4.3,4.4,6.5,9.7,6.4,15.9
	c-0.2,10.9-7.9,19.9-18.7,21.5c-15.8,2.3-28.5-11.9-24.8-27.2c0.4-1.8,1.3-3,3.2-3.2c0.9-0.1,1.8-0.4,3.2-0.7
	c-2.7,5.4-3.4,10.5-1.4,15.7c1.5,4,4.3,6.9,8.1,8.8c8.2,4.2,17.1,1.9,22.4-5.1c3.1-4.1,4.2-8.8,3.2-13.9
	C117.4,283.4,114.2,279.8,109.8,276.6"/>
<linearGradient id="XMLID_126_" gradientUnits="userSpaceOnUse" x1="75.5777" y1="261.0583" x2="118.4357" y2="261.0583">
	<stop  offset="0" style="stop-color:#FFFFFF"/>
	<stop  offset="0" style="stop-color:#9BB4CE"/>
	<stop  offset="0" style="stop-color:#35689B"/>
	<stop  offset="0" style="stop-color:#0C4987"/>
	<stop  offset="0.6432" style="stop-color:#0C4987"/>
	<stop  offset="0.6936" style="stop-color:#0C4987"/>
	<stop  offset="1" style="stop-color:#0C4987"/>
	<stop  offset="1" style="stop-color:#527EAA"/>
	<stop  offset="1" style="stop-color:#FFFFFF"/>
	<stop  offset="1" style="stop-color:#0C4987"/>
	<stop  offset="1" style="stop-color:#0C4987"/>
	<stop  offset="1" style="stop-color:#0C4987"/>
</linearGradient>
<path id="XMLID_75_" class="st29" d="M76,270.8c-0.1-1.6-0.3-3-0.4-4.7c12.8-0.9,25.3-1.8,38.1-2.7c-0.2-3.9-0.4-7.7-0.7-11.6
	c1.4-0.1,2.7-0.3,4.2-0.4c0.4,5.5,0.8,10.8,1.2,16.5C104.3,268.8,90.2,269.8,76,270.8"/>
<linearGradient id="XMLID_127_" gradientUnits="userSpaceOnUse" x1="368.5685" y1="108.9103" x2="429.9075" y2="108.9103">
	<stop  offset="0" style="stop-color:#FFFFFF"/>
	<stop  offset="0" style="stop-color:#9BB4CE"/>
	<stop  offset="0" style="stop-color:#35689B"/>
	<stop  offset="0" style="stop-color:#0C4987"/>
	<stop  offset="0.6432" style="stop-color:#0C4987"/>
	<stop  offset="0.6936" style="stop-color:#0C4987"/>
	<stop  offset="1" style="stop-color:#0C4987"/>
	<stop  offset="1" style="stop-color:#527EAA"/>
	<stop  offset="1" style="stop-color:#FFFFFF"/>
	<stop  offset="1" style="stop-color:#0C4987"/>
	<stop  offset="1" style="stop-color:#0C4987"/>
	<stop  offset="1" style="stop-color:#0C4987"/>
</linearGradient>
<path id="XMLID_95_" class="st30" d="M372.5,116.5c-1.4-1.1-2.5-2.1-3.9-3.3c10.3-12.1,20.5-24,31-36.3c0.7,2.8,0.4,5.2,0.7,7.5
	c0.3,2.4,0.3,4.8,0.4,7.2c0.1,2.4,0.2,4.8,0.3,7.2c0.1,2.5,0.3,5,0.4,7.4c0.1,2.4,0.3,4.8,0.4,7.2c0.1,2.4,0.2,4.8,0.4,7.2
	c0.1,2.4,0.3,4.8,0.5,7.6c2.4-2.1,4.1-4.5,6-6.6c2-2.2,3.8-4.5,5.8-6.7c1.9-2.2,3.8-4.5,5.7-6.7c1.9-2.2,3.8-4.4,5.9-6.8
	c1.3,1.1,2.5,2.1,3.9,3.3c-5.2,6.1-10.3,12.1-15.5,18.1c-5.1,6-10.2,12-15.4,17.9c-0.2-0.1-0.4-0.1-0.6-0.2
	c-0.9-16.8-1.8-33.6-2.8-50.4c-0.2-0.1-0.3-0.1-0.5-0.2C387.6,98.7,380.2,107.6,372.5,116.5"/>
<linearGradient id="XMLID_128_" gradientUnits="userSpaceOnUse" x1="109.5402" y1="134.9108" x2="173.2812" y2="134.9108">
	<stop  offset="0" style="stop-color:#FFFFFF"/>
	<stop  offset="0" style="stop-color:#9BB4CE"/>
	<stop  offset="0" style="stop-color:#35689B"/>
	<stop  offset="0" style="stop-color:#0C4987"/>
	<stop  offset="0.6432" style="stop-color:#0C4987"/>
	<stop  offset="0.6936" style="stop-color:#0C4987"/>
	<stop  offset="1" style="stop-color:#0C4987"/>
	<stop  offset="1" style="stop-color:#527EAA"/>
	<stop  offset="1" style="stop-color:#FFFFFF"/>
	<stop  offset="1" style="stop-color:#0C4987"/>
	<stop  offset="1" style="stop-color:#0C4987"/>
	<stop  offset="1" style="stop-color:#0C4987"/>
</linearGradient>
<path id="XMLID_94_" class="st31" d="M150,161.2c-0.9,1.2-1.7,2.2-2.5,3.2c-0.2,0.2-0.4,0.4-0.8,0.7c-12.4-9.7-24.8-19.5-37.1-29.2
	l0.1-0.6c16.8-1.6,33.6-3.3,50.4-4.9c0.1-0.2,0.1-0.3,0.2-0.5c-0.5-0.4-1.1-0.9-1.6-1.3c-7.7-6.1-15.4-12.1-23.1-18.2
	c-0.9-0.7-1.7-1.4-2.7-2.3c1-1.4,1.9-2.5,2.8-3.7c1.8,0.7,36.4,27.8,37.7,29.6c-16.9,1.7-33.7,3.3-50.5,5c-0.1,0.2-0.1,0.3-0.2,0.5
	C131.5,146.9,140.7,153.9,150,161.2"/>
<linearGradient id="XMLID_129_" gradientUnits="userSpaceOnUse" x1="327.3665" y1="79.7098" x2="375.3961" y2="79.7098">
	<stop  offset="0" style="stop-color:#FFFFFF"/>
	<stop  offset="0" style="stop-color:#9BB4CE"/>
	<stop  offset="0" style="stop-color:#35689B"/>
	<stop  offset="0" style="stop-color:#0C4987"/>
	<stop  offset="0.6432" style="stop-color:#0C4987"/>
	<stop  offset="0.6936" style="stop-color:#0C4987"/>
	<stop  offset="1" style="stop-color:#0C4987"/>
	<stop  offset="1" style="stop-color:#527EAA"/>
	<stop  offset="1" style="stop-color:#FFFFFF"/>
	<stop  offset="1" style="stop-color:#0C4987"/>
	<stop  offset="1" style="stop-color:#0C4987"/>
	<stop  offset="1" style="stop-color:#0C4987"/>
</linearGradient>
<path id="XMLID_91_" class="st32" d="M351.5,103.6c-15.1-0.1-24.3-12.9-24.2-24.2c0.2-11,8.7-23.5,24-23.5c14.6,0,24.3,12,24,24.6
	C375.1,93.6,364.5,103.6,351.5,103.6 M351.2,98.7c8.4,0.4,19.1-6.3,19.1-19.1c0.1-11.7-9.2-18.9-18.7-19c-10.1-0.1-19.3,8-19.2,19.3
	C332.5,91.2,341.8,99,351.2,98.7"/>
<linearGradient id="XMLID_130_" gradientUnits="userSpaceOnUse" x1="163.6715" y1="105.141" x2="208.0415" y2="105.141">
	<stop  offset="0" style="stop-color:#FFFFFF"/>
	<stop  offset="0" style="stop-color:#9BB4CE"/>
	<stop  offset="0" style="stop-color:#35689B"/>
	<stop  offset="0" style="stop-color:#0C4987"/>
	<stop  offset="0.6432" style="stop-color:#0C4987"/>
	<stop  offset="0.6936" style="stop-color:#0C4987"/>
	<stop  offset="1" style="stop-color:#0C4987"/>
	<stop  offset="1" style="stop-color:#527EAA"/>
	<stop  offset="1" style="stop-color:#FFFFFF"/>
	<stop  offset="1" style="stop-color:#0C4987"/>
	<stop  offset="1" style="stop-color:#0C4987"/>
	<stop  offset="1" style="stop-color:#0C4987"/>
</linearGradient>
<path id="XMLID_88_" class="st33" d="M175.8,113.5c1.1,4.7,2,9.2,3.1,13.9c-1.4,1-2.7,2-4.5,3.2c-3.6-17.2-7.2-34-10.7-50.7
	c0.2-0.2,0.3-0.2,0.3-0.3c0.1,0,0.2-0.1,0.2-0.1c14.2,8.5,28.5,17,42.7,25.5c0.4,0.2,0.7,0.5,1.2,0.8c-0.9,1.7-2.7,2.2-4,3.5
	c-4-2.5-8-4.9-12.1-7.5C186.5,105.8,181.2,109.6,175.8,113.5 M187.4,99.3c-5.7-3.5-11.1-6.8-16.4-10.1c-0.1,0.1-0.3,0.2-0.4,0.3
	c1.4,6.2,2.8,12.4,4.2,18.9C179.1,105.3,183.1,102.4,187.4,99.3"/>
<linearGradient id="XMLID_131_" gradientUnits="userSpaceOnUse" x1="223.8355" y1="73.3058" x2="264.3495" y2="73.3058">
	<stop  offset="0" style="stop-color:#FFFFFF"/>
	<stop  offset="0" style="stop-color:#9BB4CE"/>
	<stop  offset="0" style="stop-color:#35689B"/>
	<stop  offset="0" style="stop-color:#0C4987"/>
	<stop  offset="0.6432" style="stop-color:#0C4987"/>
	<stop  offset="0.6936" style="stop-color:#0C4987"/>
	<stop  offset="1" style="stop-color:#0C4987"/>
	<stop  offset="1" style="stop-color:#527EAA"/>
	<stop  offset="1" style="stop-color:#FFFFFF"/>
	<stop  offset="1" style="stop-color:#0C4987"/>
	<stop  offset="1" style="stop-color:#0C4987"/>
	<stop  offset="1" style="stop-color:#0C4987"/>
</linearGradient>
<path id="XMLID_85_" class="st34" d="M232.9,47.6c10.4,13.6,20.8,27.2,31.5,41.1c-2,0.5-3.6,1-5.4,1.5c-2.9-3.8-5.7-7.6-8.5-11.4
	c-6.5,1.6-12.8,3.3-19.2,4.9c-0.7,4.7-1.4,9.2-2.2,14.1c-1.6,0.4-3.2,0.8-5.2,1.3c0.7-6,1.8-11.6,2.8-17.3c0.9-5.7,1.9-11.3,2.8-17
	c1-5.7,1.9-11.4,2.9-17.1C232.5,47.6,232.7,47.6,232.9,47.6 M235.7,59.2c-0.2,0.1-0.3,0.1-0.5,0.2c-1,6.2-2.1,12.5-2.9,19
	c5.1-1.3,9.9-2.3,14.9-3.9C243.2,69.2,239.4,64.2,235.7,59.2"/>
<linearGradient id="XMLID_132_" gradientUnits="userSpaceOnUse" x1="264.9789" y1="66.0484" x2="303.0871" y2="66.0484">
	<stop  offset="0" style="stop-color:#FFFFFF"/>
	<stop  offset="0" style="stop-color:#9BB4CE"/>
	<stop  offset="0" style="stop-color:#35689B"/>
	<stop  offset="0" style="stop-color:#0C4987"/>
	<stop  offset="0.6432" style="stop-color:#0C4987"/>
	<stop  offset="0.6936" style="stop-color:#0C4987"/>
	<stop  offset="1" style="stop-color:#0C4987"/>
	<stop  offset="1" style="stop-color:#527EAA"/>
	<stop  offset="1" style="stop-color:#FFFFFF"/>
	<stop  offset="1" style="stop-color:#0C4987"/>
	<stop  offset="1" style="stop-color:#0C4987"/>
	<stop  offset="1" style="stop-color:#0C4987"/>
</linearGradient>
<path id="XMLID_84_" class="st35" d="M302.6,52.7c-4.4-3.9-9.3-6.2-15.1-5.8c-4.7,0.3-8.7,2.4-11.9,5.8c-6.7,6.9-7.3,17.1-1.5,24.9
	c2.2,2.9,4.9,5.1,8.3,6.4c3.5,1.4,7,1.5,10.7,0.7c3.5-0.8,6.5-2.7,9.5-5.1c0,2.1,0.1,3.8-0.1,5.5c0,0.5-0.7,1.1-1.2,1.4
	c-3.8,2.4-8,3.5-12.5,3.5c-12.1-0.2-22.5-9.4-23.6-21.1c-1.2-12.6,7-23.8,19.3-26.2c6.1-1.2,11.8-0.3,17.2,3.1
	c1.2,0.7,1.7,1.6,1.5,2.9c-0.1,1.1-0.1,2.3-0.1,3.4C302.9,52.2,302.8,52.3,302.6,52.7"/>
<linearGradient id="XMLID_133_" gradientUnits="userSpaceOnUse" x1="184.5993" y1="80.3908" x2="218.8533" y2="80.3908">
	<stop  offset="0" style="stop-color:#FFFFFF"/>
	<stop  offset="0" style="stop-color:#9BB4CE"/>
	<stop  offset="0" style="stop-color:#35689B"/>
	<stop  offset="0" style="stop-color:#0C4987"/>
	<stop  offset="0.6432" style="stop-color:#0C4987"/>
	<stop  offset="0.6936" style="stop-color:#0C4987"/>
	<stop  offset="1" style="stop-color:#0C4987"/>
	<stop  offset="1" style="stop-color:#527EAA"/>
	<stop  offset="1" style="stop-color:#FFFFFF"/>
	<stop  offset="1" style="stop-color:#0C4987"/>
	<stop  offset="1" style="stop-color:#0C4987"/>
	<stop  offset="1" style="stop-color:#0C4987"/>
</linearGradient>
<path id="XMLID_83_" class="st36" d="M196.7,67.3c-3.5,1.6-6.7,3.1-10.1,4.7c-0.7-1.4-1.3-2.7-2-4.2c8.3-4.1,16.6-7.7,24.9-11.7
	c0.7,1.4,1.3,2.7,2.1,4.3c-3.4,1.6-6.7,3.2-10.2,4.9c5.8,12.5,11.6,24.9,17.5,37.5c-1.5,0.7-2.8,1.4-4.5,2.2
	c-3.2-6.3-5.9-12.5-8.8-18.7C202.6,79.9,199.7,73.7,196.7,67.3"/>
<linearGradient id="XMLID_134_" gradientUnits="userSpaceOnUse" x1="310.0544" y1="69.091" x2="322.8987" y2="69.091">
	<stop  offset="0" style="stop-color:#FFFFFF"/>
	<stop  offset="0" style="stop-color:#9BB4CE"/>
	<stop  offset="0" style="stop-color:#35689B"/>
	<stop  offset="0" style="stop-color:#0C4987"/>
	<stop  offset="0.6432" style="stop-color:#0C4987"/>
	<stop  offset="0.6936" style="stop-color:#0C4987"/>
	<stop  offset="1" style="stop-color:#0C4987"/>
	<stop  offset="1" style="stop-color:#527EAA"/>
	<stop  offset="1" style="stop-color:#FFFFFF"/>
	<stop  offset="1" style="stop-color:#0C4987"/>
	<stop  offset="1" style="stop-color:#0C4987"/>
	<stop  offset="1" style="stop-color:#0C4987"/>
</linearGradient>
<path id="XMLID_82_" class="st37" d="M318.4,46.1c1.6,0.3,3,0.6,4.5,0.8c0.2,2-6.7,39.3-8.3,45.1c-1.7,0.2-2.1,0.2-4.5-0.6
	C309.8,89.4,316.3,54.3,318.4,46.1"/>
<linearGradient id="XMLID_135_" gradientUnits="userSpaceOnUse" x1="388.0156" y1="372.4901" x2="442.7852" y2="372.4901" gradientTransform="matrix(0.9902 -0.1397 0.1397 0.9902 -50.8526 54.5459)">
	<stop  offset="0" style="stop-color:#FFFFFF"/>
	<stop  offset="0" style="stop-color:#9BB4CE"/>
	<stop  offset="0" style="stop-color:#35689B"/>
	<stop  offset="0" style="stop-color:#0C4987"/>
	<stop  offset="0.6432" style="stop-color:#0C4987"/>
	<stop  offset="0.6936" style="stop-color:#0C4987"/>
	<stop  offset="1" style="stop-color:#0C4987"/>
	<stop  offset="1" style="stop-color:#527EAA"/>
	<stop  offset="1" style="stop-color:#FFFFFF"/>
	<stop  offset="1" style="stop-color:#0C4987"/>
	<stop  offset="1" style="stop-color:#0C4987"/>
	<stop  offset="1" style="stop-color:#0C4987"/>
</linearGradient>
<path id="XMLID_99_" class="st38" d="M404.3,342.2c1.2-1.5,2.2-2.7,3.3-4.1c0.7,0.5,1.3,0.9,1.9,1.4c7.7,6.1,15.3,12.3,23,18.4
	c0.9,0.7,1.7,1.5,2.6,2.2c7.1,5.9,7.1,14.6,4.2,20.6c-3.3,6.9-8.8,10.7-16.5,11.2c-2.5,0.2-4.8-0.3-7-1.5c-1.8-1-3.6-2.2-5.3-3.5
	c-8-6.4-16-12.8-24-19.3c-0.5-0.4-0.9-0.8-1.4-1.3c1.1-1.4,2.1-2.7,3.3-4.2c0.8,0.6,1.5,1.1,2.2,1.6c7.1,5.7,14.2,11.4,21.4,17.1
	c1.4,1.1,2.8,2.3,4.3,3.3c6.4,4.2,14.6,2.1,18-4.8c2.4-4.9,2.7-10.5-2.8-15.1c-5.3-4.5-10.8-8.8-16.2-13.1c-3.1-2.5-6.2-5-9.3-7.5
	C405.4,343.2,404.9,342.8,404.3,342.2"/>
<linearGradient id="XMLID_136_" gradientUnits="userSpaceOnUse" x1="272.1684" y1="423.804" x2="301.398" y2="423.804" gradientTransform="matrix(0.9902 -0.1397 0.1397 0.9902 -50.8526 54.5459)">
	<stop  offset="0" style="stop-color:#FFFFFF"/>
	<stop  offset="0" style="stop-color:#9BB4CE"/>
	<stop  offset="0" style="stop-color:#35689B"/>
	<stop  offset="0" style="stop-color:#0C4987"/>
	<stop  offset="0.6432" style="stop-color:#0C4987"/>
	<stop  offset="0.6936" style="stop-color:#0C4987"/>
	<stop  offset="1" style="stop-color:#0C4987"/>
	<stop  offset="1" style="stop-color:#527EAA"/>
	<stop  offset="1" style="stop-color:#FFFFFF"/>
	<stop  offset="1" style="stop-color:#0C4987"/>
	<stop  offset="1" style="stop-color:#0C4987"/>
	<stop  offset="1" style="stop-color:#0C4987"/>
</linearGradient>
<path id="XMLID_98_" class="st39" d="M286.4,455.1c7.1-0.6,13.7-1.1,20.7-1.7c0.2,1.7,0.3,3.2,0.5,5.1c-8.7,0.7-17.3,1.4-26.3,2.2
	c-1.5-17-2.8-33.8-4.2-50.9c8.8-0.7,17.4-1.4,26.2-2.1c0.2,1.8,0.3,3.3,0.4,5.1c-7,0.6-13.8,1.2-20.8,1.8c0.4,5.2,0.8,10.1,1.3,15.3
	c6.8-0.5,13.4-1.1,20.2-1.6c0.1,1.7,0.3,3.3,0.4,5.1c-6.7,0.6-13.2,1.1-20,1.7C285.2,441.6,285.8,448.2,286.4,455.1"/>
<linearGradient id="XMLID_137_" gradientUnits="userSpaceOnUse" x1="351.2326" y1="404.5993" x2="400.4018" y2="404.5993" gradientTransform="matrix(0.9902 -0.1397 0.1397 0.9902 -50.8526 54.5459)">
	<stop  offset="0" style="stop-color:#FFFFFF"/>
	<stop  offset="0" style="stop-color:#9BB4CE"/>
	<stop  offset="0" style="stop-color:#35689B"/>
	<stop  offset="0" style="stop-color:#0C4987"/>
	<stop  offset="0.6432" style="stop-color:#0C4987"/>
	<stop  offset="0.6936" style="stop-color:#0C4987"/>
	<stop  offset="1" style="stop-color:#0C4987"/>
	<stop  offset="1" style="stop-color:#527EAA"/>
	<stop  offset="1" style="stop-color:#FFFFFF"/>
	<stop  offset="1" style="stop-color:#0C4987"/>
	<stop  offset="1" style="stop-color:#0C4987"/>
	<stop  offset="1" style="stop-color:#0C4987"/>
</linearGradient>
<path id="XMLID_97_" class="st40" d="M400.5,406.3c0.8,1.2,1.3,1.9,1.8,2.7c2.1,3.1,2.1,3.1,0.2,6.4c-5.3,9-13.2,13.6-23.5,13.4
	c-10.4-0.2-18.3-5-23-14.3c-7.8-15.5,1.2-34.4,18.4-37.9c0.4-0.1,0.9-0.2,1.3-0.2c4.9-0.5,6,0.2,7.9,5.3c-7.1-0.9-13.6,0.5-18.8,5.5
	c-3.7,3.5-5.7,8-6.1,13c-0.9,10.6,5.4,20.1,16.2,22.8c5.8,1.4,11.2,0.6,16.3-2.6C396.2,417.1,398.9,412.3,400.5,406.3"/>
<linearGradient id="XMLID_138_" gradientUnits="userSpaceOnUse" x1="310.9692" y1="421.51" x2="344.3323" y2="421.51" gradientTransform="matrix(0.9902 -0.1397 0.1397 0.9902 -50.8526 54.5459)">
	<stop  offset="0" style="stop-color:#FFFFFF"/>
	<stop  offset="0" style="stop-color:#9BB4CE"/>
	<stop  offset="0" style="stop-color:#35689B"/>
	<stop  offset="0" style="stop-color:#0C4987"/>
	<stop  offset="0.6432" style="stop-color:#0C4987"/>
	<stop  offset="0.6936" style="stop-color:#0C4987"/>
	<stop  offset="1" style="stop-color:#0C4987"/>
	<stop  offset="1" style="stop-color:#527EAA"/>
	<stop  offset="1" style="stop-color:#FFFFFF"/>
	<stop  offset="1" style="stop-color:#0C4987"/>
	<stop  offset="1" style="stop-color:#0C4987"/>
	<stop  offset="1" style="stop-color:#0C4987"/>
</linearGradient>
<path id="XMLID_96_" class="st41" d="M320.3,443.9c1.6-1.1,3-2,4.5-3c0.6,0.8,1.1,1.5,1.7,2.2c5,6.1,13.9,5.1,17.6-1.7
	c2.5-4.6,1-11.7-5.6-13.4c-2.5-0.6-5.1-0.8-7.6-1.2c-2.5-0.4-5.1-0.7-7.6-1.3c-4.7-1.1-7.8-4-8.9-8.7c-1.2-4.8,0.1-9,3.7-12.4
	c4.9-4.6,13.4-6.4,19.9-1.1c0.3,0.3,0.6,0.6,1,1c-0.3,0.4-0.4,0.7-0.7,1c-0.8,0.9-1.5,1.9-2.4,2.9c-0.7-0.5-1.4-1-2.1-1.4
	c-3.8-2.5-8.6-1.9-11.8,1.2c-3.5,3.3-3.7,10.6,3,12.3c2.6,0.7,5.3,0.9,8,1.3c2.1,0.3,4.2,0.6,6.3,0.9c10.8,1.9,13,12.6,10.4,19.3
	c-2.6,6.6-7.7,10-14.6,10.5C328.6,452.8,323.9,449.6,320.3,443.9"/>
<linearGradient id="XMLID_139_" gradientUnits="userSpaceOnUse" x1="442.7019" y1="256.7358" x2="495.5051" y2="256.7358" gradientTransform="matrix(0.9976 -6.941026e-002 6.941026e-002 0.9976 -17.9414 32.0317)">
	<stop  offset="0" style="stop-color:#FFFFFF"/>
	<stop  offset="0" style="stop-color:#9BB4CE"/>
	<stop  offset="0" style="stop-color:#35689B"/>
	<stop  offset="0" style="stop-color:#0C4987"/>
	<stop  offset="0.6432" style="stop-color:#0C4987"/>
	<stop  offset="0.6936" style="stop-color:#0C4987"/>
	<stop  offset="1" style="stop-color:#0C4987"/>
	<stop  offset="1" style="stop-color:#527EAA"/>
	<stop  offset="1" style="stop-color:#FFFFFF"/>
	<stop  offset="1" style="stop-color:#0C4987"/>
	<stop  offset="1" style="stop-color:#0C4987"/>
	<stop  offset="1" style="stop-color:#0C4987"/>
</linearGradient>
<path id="XMLID_105_" class="st42" d="M469.8,282.1c-14.6,1-27.2-10-28.2-24.6c-1-14.6,10-27.3,24.5-28.4
	c14.2-1.1,27.1,9.4,28.2,24.6C495.3,270.1,482.6,281.4,469.8,282.1 M446.6,257c0.8,11.4,10.7,20.3,22.7,19.6
	c11.7-0.7,20.6-11,19.8-22.5c-0.8-11.5-11.1-20.4-22.7-19.6C454.7,235.3,445.8,245.4,446.6,257"/>
<linearGradient id="XMLID_140_" gradientUnits="userSpaceOnUse" x1="413.8763" y1="344.3694" x2="470.3524" y2="344.3694" gradientTransform="matrix(0.9858 -0.1678 0.1678 0.9858 -46.4931 75.2112)">
	<stop  offset="0" style="stop-color:#FFFFFF"/>
	<stop  offset="0" style="stop-color:#9BB4CE"/>
	<stop  offset="0" style="stop-color:#35689B"/>
	<stop  offset="0" style="stop-color:#0C4987"/>
	<stop  offset="0.6432" style="stop-color:#0C4987"/>
	<stop  offset="0.6936" style="stop-color:#0C4987"/>
	<stop  offset="1" style="stop-color:#0C4987"/>
	<stop  offset="1" style="stop-color:#527EAA"/>
	<stop  offset="1" style="stop-color:#FFFFFF"/>
	<stop  offset="1" style="stop-color:#0C4987"/>
	<stop  offset="1" style="stop-color:#0C4987"/>
	<stop  offset="1" style="stop-color:#0C4987"/>
</linearGradient>
<path id="XMLID_102_" class="st43" d="M473,324c-0.9,1.8-1.6,3.2-2.3,4.6c-0.5,1-1.3,0.8-2.1,0.8c-4.3-0.3-8.6-0.6-12.9-1
	c-0.3,0-0.6,0-1,0c-0.3,0.5-0.7,1.1-1,1.7c-2.7,5.4-5.4,10.8-8.2,16.1c-0.8,1.4-0.5,2.3,0.5,3.4c3,3.4,5.8,6.9,8.8,10.5
	c-0.9,1.7-1.7,3.4-2.7,5.4c-12.3-15.1-24.4-29.9-36.9-45.1C434.6,321.6,453.5,322.8,473,324 M441,343.6c2.7-5.4,5.3-10.3,7.9-15.7
	c-7.5-0.6-14.6-1.1-21.7-1.6c-0.1,0.2-0.1,0.3-0.2,0.5C431.5,332.2,436.1,337.7,441,343.6"/>
<linearGradient id="XMLID_141_" gradientUnits="userSpaceOnUse" x1="442.4175" y1="199.9758" x2="495.159" y2="199.9758" gradientTransform="matrix(0.9976 -6.941026e-002 6.941026e-002 0.9976 -17.9414 32.0317)">
	<stop  offset="0" style="stop-color:#FFFFFF"/>
	<stop  offset="0" style="stop-color:#9BB4CE"/>
	<stop  offset="0" style="stop-color:#35689B"/>
	<stop  offset="0" style="stop-color:#0C4987"/>
	<stop  offset="0.6432" style="stop-color:#0C4987"/>
	<stop  offset="0.6936" style="stop-color:#0C4987"/>
	<stop  offset="1" style="stop-color:#0C4987"/>
	<stop  offset="1" style="stop-color:#527EAA"/>
	<stop  offset="1" style="stop-color:#FFFFFF"/>
	<stop  offset="1" style="stop-color:#0C4987"/>
	<stop  offset="1" style="stop-color:#0C4987"/>
	<stop  offset="1" style="stop-color:#0C4987"/>
</linearGradient>
<path id="XMLID_101_" class="st44" d="M480.3,212.5c-0.9-1.6-1.7-3-2.6-4.6c0.9-0.6,1.6-1,2.3-1.5c3.7-2.7,5.4-6.3,4.4-10.8
	c-1-4.2-3.6-7.1-7.9-8.1c-4.5-1.1-8.8,1.1-10.4,5.4c-0.9,2.3-1.3,4.8-1.8,7.2c-0.6,2.6-1,5.2-1.8,7.7c-1.5,4.9-4.8,8-10,8.7
	c-5.3,0.7-9.4-1.5-12.4-5.9c-4.1-6-3.5-13.7,1.3-18.8c0.3-0.3,0.7-0.6,1.1-1c1.2,1.2,2.3,2.2,3.6,3.5c-0.6,0.7-1.1,1.3-1.6,2
	c-2.9,3.7-2.5,9.1,0.8,12.4c3,3.2,9.8,3.8,12-2.3c0.9-2.6,1.3-5.4,2-8.1c0.5-2.1,0.8-4.2,1.4-6.2c2.9-9.5,13.1-13.3,21.6-8
	c5.4,3.4,7.9,8.5,7.7,14.7c-0.2,6-3.3,10.4-8.4,13.3C481.2,212.2,480.9,212.2,480.3,212.5"/>
<linearGradient id="XMLID_142_" gradientUnits="userSpaceOnUse" x1="429.4821" y1="306.242" x2="484.0981" y2="306.242" gradientTransform="matrix(0.9976 -6.941026e-002 6.941026e-002 0.9976 -17.9414 32.0317)">
	<stop  offset="0" style="stop-color:#FFFFFF"/>
	<stop  offset="0" style="stop-color:#9BB4CE"/>
	<stop  offset="0" style="stop-color:#35689B"/>
	<stop  offset="0" style="stop-color:#0C4987"/>
	<stop  offset="0.6432" style="stop-color:#0C4987"/>
	<stop  offset="0.6936" style="stop-color:#0C4987"/>
	<stop  offset="1" style="stop-color:#0C4987"/>
	<stop  offset="1" style="stop-color:#527EAA"/>
	<stop  offset="1" style="stop-color:#FFFFFF"/>
	<stop  offset="1" style="stop-color:#0C4987"/>
	<stop  offset="1" style="stop-color:#0C4987"/>
	<stop  offset="1" style="stop-color:#0C4987"/>
</linearGradient>
<path id="XMLID_100_" class="st45" d="M479.2,317.3c-16.1-5.9-31.9-11.6-48-17.5c0.7-1.8,1.2-3.4,1.9-5.2
	c14.4,5.2,28.6,10.4,43.1,15.7c1.6-4.4,3.2-8.8,4.9-13.3c1.6,0.6,3.1,1.1,4.8,1.8C483.6,305.1,481.5,311.1,479.2,317.3"/>
<g id="XMLID_109_">
	<linearGradient id="XMLID_143_" gradientUnits="userSpaceOnUse" x1="369.3672" y1="58.1157" x2="382.9277" y2="58.1157">
		<stop  offset="0" style="stop-color:#FFFFFF"/>
		<stop  offset="0" style="stop-color:#9BB4CE"/>
		<stop  offset="0" style="stop-color:#35689B"/>
		<stop  offset="0" style="stop-color:#0C4987"/>
		<stop  offset="0.6432" style="stop-color:#0C4987"/>
		<stop  offset="0.6936" style="stop-color:#0C4987"/>
		<stop  offset="1" style="stop-color:#0C4987"/>
		<stop  offset="1" style="stop-color:#527EAA"/>
		<stop  offset="1" style="stop-color:#FFFFFF"/>
		<stop  offset="1" style="stop-color:#0C4987"/>
		<stop  offset="1" style="stop-color:#0C4987"/>
		<stop  offset="1" style="stop-color:#0C4987"/>
	</linearGradient>
	<path id="XMLID_113_" class="st46" d="M382.9,58.8l-10.7,2.2l-2.9-2.2l9.1-3.4L382.9,58.8z"/>
</g>
</svg>
