<?xml version="1.0" encoding="utf-8"?>
<!-- Generator: Adobe Illustrator 19.0.0, SVG Export Plug-In . SVG Version: 6.00 Build 0)  -->
<svg version="1.1" id="Capa_1" xmlns="http://www.w3.org/2000/svg" xmlns:xlink="http://www.w3.org/1999/xlink" x="0px" y="0px"
	 viewBox="0 0 441.3 494.7" style="enable-background:new 0 0 441.3 494.7;" xml:space="preserve">
<style type="text/css">
	.st0{fill:#FFFFFF;}
	.st1{fill:#104680;}
	.st2{fill:#90B046;}
</style>
<g id="XMLID_2_">
	<path id="XMLID_13_" class="st0" d="M344.5,400.9H101.3c-43.7,0-79.1-35.4-79.1-79.1V99.5c0-43.7,35.4-79.1,79.1-79.1h243.3
		c43.7,0,79.1,35.4,79.1,79.1v222.3C423.7,365.5,388.2,400.9,344.5,400.9z"/>
	<path id="XMLID_12_" class="st1" d="M22.2,155.5c40.5-34.8,139.1-54,190.3-4.6c49.5,47.8,193.1,85.9,210.5-7.5
		c12-64.3-15.5-123-78.4-123c-27.9,0-225.4-1-246.6,0.5c-25.5,1.8-67.2,10.6-74.3,64.5C19.4,118.1,22.2,155.5,22.2,155.5z"/>
	<path id="XMLID_11_" class="st1" d="M22.2,211.5v-26.3c0,0,32.5-31.8,94.3-37.8c73.5-7.3,155.7,84.8,214.8,76.8
		c64.3-8.8,92.5-43.8,92.5-43.8v29c0,0-32.5,42.5-96.3,44.3c-59.5,1.6-134.8-71.3-186.8-75C110.3,176.5,89.7,173.2,22.2,211.5z"/>
	<path id="XMLID_10_" class="st1" d="M22.2,264.8v-26.3c0,0,32.5-31.8,94.3-37.8c73.5-7.3,155.7,84.8,214.8,76.8
		c64.3-8.8,92.5-43.9,92.5-43.9v29.2c0,0-32.5,42.5-96.3,44.3c-59.5,1.6-134.8-71.3-186.8-75C110.3,229.8,89.7,226.6,22.2,264.8z"/>
	<path id="XMLID_9_" class="st2" d="M22.2,314.9v-26.7c0,0,32.5-31.8,94.3-37.8c73.5-7.3,155.7,84.8,214.8,76.8
		c64.3-8.8,92.5-43.9,92.5-43.9v29.1c0,0-32.5,42.5-96.3,44.3c-59.5,1.6-134.8-71.3-186.8-75C110.3,279.4,89.7,276.6,22.2,314.9z"/>
	<path id="XMLID_8_" class="st2" d="M24.7,341.9c0,0,41.8-38.2,88.7-41c67.2-4,136.5,78.5,204.5,78.5s104.3-42.3,104.3-42.3
		s-10.1,56.6-65.3,62.6c-46.8,5.1-255.6,1.3-255.6,1.3S37,399.9,24.7,341.9z"/>
	<path id="XMLID_7_" class="st0" d="M165,125.4c0,0-22-28.4-42.6-28.8c-20.5-0.4-39.5,15-49.3,15.8s-19.8-17.5-6.3-34
		s45.3-31.7,70.2-31s64.5,27.2,81.8,55.2s27.8,33,26.5,44.8s-22.4-17.9-39.5-32c-5.9-4.8-24-34.4-60.5-45.3
		c-41.2-12.2-63.5,10.5-64.7,17c-1.9,9.9,24.5-1.8,38-1.8c24.5,0.2,34.4,12.5,43.7,22c11.2,11.3,12.6,21,12.6,21L165,125.4z"/>
	<path id="XMLID_6_" class="st0" d="M276.7,55.1c38.7,0.4,46.3,33.2,43.8,50.2s-19,40.8-43.8,39.3s-41-24.9-42.5-44.7
		S251.9,54.9,276.7,55.1z"/>
	<path id="XMLID_5_" class="st0" d="M273.7,87.4"/>
	<path id="XMLID_4_" class="st0" d="M180.7,135.4"/>
	<path id="XMLID_3_" class="st1" d="M277,72.1c22.3,0.2,26.7,19.2,25.2,29c-1.4,9.8-10.9,23.5-25.2,22.6s-23.6-14.4-24.5-25.8
		S262.7,72,277,72.1z"/>
</g>
<g id="XMLID_14_">
	<path id="XMLID_15_" class="st1" d="M60.4,456.2c-5.8-1.5-10.1-3.4-12.7-5.7s-4-5-4-8.3c0-3.7,1.6-6.8,4.9-9.2
		c3.2-2.4,7.5-3.6,12.7-3.6c3.5,0,6.7,0.6,9.5,1.9c2.8,1.3,4.9,3,6.4,5.2s2.3,4.6,2.3,7.2h-6.8c0-2.9-1-5.1-3-6.7s-4.8-2.5-8.4-2.5
		c-3.4,0-6,0.7-7.8,2c-1.9,1.4-2.8,3.2-2.8,5.6c0,1.9,0.9,3.6,2.7,4.9c1.8,1.3,4.8,2.5,9.1,3.7c4.3,1.1,7.6,2.3,10.1,3.6
		c2.4,1.3,4.2,2.9,5.4,4.6c1.2,1.8,1.8,3.9,1.8,6.3c0,3.8-1.6,6.9-4.9,9.2c-3.3,2.3-7.6,3.4-13.1,3.4c-3.5,0-6.8-0.6-9.9-1.9
		c-3.1-1.2-5.4-2.9-7.1-5.1c-1.7-2.2-2.5-4.6-2.5-7.4h6.8c0,2.8,1.2,5.1,3.5,6.8c2.3,1.7,5.4,2.5,9.2,2.5c3.6,0,6.3-0.7,8.3-2
		s2.9-3.2,2.9-5.5c0-2.3-0.9-4.1-2.7-5.4C68.3,458.7,65.1,457.4,60.4,456.2z"/>
	<path id="XMLID_17_" class="st1" d="M99.4,462.4l1,6.2l1.5-5.6l10.2-32.9h5.7l10,32.9l1.4,5.7l1.1-6.3l8-32.3h6.8l-12.5,47.2h-6.2
		l-10.6-34.4l-0.8-3.6l-0.8,3.6l-11,34.4h-6.2l-12.5-47.2h6.8L99.4,462.4z"/>
	<path id="XMLID_19_" class="st1" d="M159.9,477.2h-6.8v-47.2h6.8V477.2z"/>
	<path id="XMLID_21_" class="st1" d="M181.1,430.1l16.9,38.5l16.9-38.5h8.8v47.2h-6.8v-18.4l0.6-19.8l-16.9,38.2h-5.2l-16.9-38.1
		l0.7,19.7v18.4h-6.8v-47.2H181.1z"/>
	<path id="XMLID_23_" class="st2" d="M273.7,471c-1.7,2.3-4.2,4-7.3,5.1c-3.1,1.1-6.8,1.7-10.9,1.7c-4.2,0-7.9-0.9-11.2-2.7
		c-3.3-1.8-5.8-4.4-7.6-7.7c-1.8-3.3-2.7-7.2-2.7-11.6v-4.1c0-7.1,1.8-12.6,5.4-16.5c3.6-3.9,8.7-5.9,15.3-5.9c5.4,0,9.7,1.3,13,3.8
		c3.3,2.5,5.3,6.1,6,10.7h-6.8c-1.3-6.3-5.3-9.4-12.2-9.4c-4.6,0-8,1.5-10.4,4.4s-3.5,7.2-3.6,12.7v3.9c0,5.3,1.3,9.5,4,12.6
		s6.2,4.7,10.7,4.7c2.6,0,4.8-0.3,6.7-0.8c1.9-0.5,3.5-1.4,4.7-2.6v-10.6H255v-5.1h18.7V471z"/>
	<path id="XMLID_25_" class="st2" d="M314.2,455.4h-22.3v16.7h26v5.1h-32.8v-47.2h32.4v5.1h-25.6v15.2h22.3V455.4z"/>
	<path id="XMLID_27_" class="st2" d="M341.5,456.2c-5.8-1.5-10.1-3.4-12.7-5.7c-2.7-2.2-4-5-4-8.3c0-3.7,1.6-6.8,4.9-9.2
		c3.2-2.4,7.5-3.6,12.7-3.6c3.5,0,6.7,0.6,9.5,1.9c2.8,1.3,4.9,3,6.4,5.2c1.5,2.2,2.3,4.6,2.3,7.2h-6.8c0-2.9-1-5.1-3-6.7
		s-4.8-2.5-8.4-2.5c-3.4,0-6,0.7-7.8,2c-1.9,1.4-2.8,3.2-2.8,5.6c0,1.9,0.9,3.6,2.7,4.9c1.8,1.3,4.8,2.5,9.1,3.7
		c4.3,1.1,7.6,2.3,10.1,3.6c2.4,1.3,4.2,2.9,5.4,4.6c1.2,1.8,1.8,3.9,1.8,6.3c0,3.8-1.6,6.9-4.9,9.2c-3.3,2.3-7.6,3.4-13.1,3.4
		c-3.5,0-6.8-0.6-9.9-1.9c-3.1-1.2-5.4-2.9-7.1-5.1c-1.7-2.2-2.5-4.6-2.5-7.4h6.8c0,2.8,1.2,5.1,3.5,6.8c2.3,1.7,5.4,2.5,9.2,2.5
		c3.6,0,6.3-0.7,8.3-2c1.9-1.3,2.9-3.2,2.9-5.5c0-2.3-0.9-4.1-2.7-5.4C349.4,458.7,346.2,457.4,341.5,456.2z"/>
	<path id="XMLID_29_" class="st2" d="M405,435.2h-16.6v42.1h-6.8v-42.1h-16.5v-5.1H405V435.2z"/>
</g>
</svg>
