<?xml version="1.0" encoding="utf-8"?>
<!-- Generator: Adobe Illustrator 19.0.0, SVG Export Plug-In . SVG Version: 6.00 Build 0)  -->
<svg version="1.1" id="icon" xmlns="http://www.w3.org/2000/svg" xmlns:xlink="http://www.w3.org/1999/xlink" x="0px" y="0px"
	 viewBox="-79 -120 800 800" style="enable-background:new -79 -120 800 800;" xml:space="preserve">
<style type="text/css">
	.st0{fill:#808080;stroke:#808080;stroke-width:0.5698;}
</style>
<g id="SVGRepo_bgCarrier">
</g>
<g id="SVGRepo_tracerCarrier">
</g>
<title>no-image</title>
<path class="st0" d="M525.8,105.4l-20.7-19.6L116.3,454.6l20.7,19.6l29.3-27.8h301.1c16.1,0,29.2-12.4,29.3-27.8V133.1L525.8,105.4z
	 M467.3,418.8H195.4l114-108.1l34.8,33c11.4,10.8,29.9,10.8,41.4,0l23.2-22l58.5,55.5V418.8z M467.3,337.8L429.4,302
	c-11.4-10.8-29.9-10.8-41.4,0l-23.2,22l-34.8-33l137.1-130.1V337.8z"/>
<path class="st0" d="M174.8,363.3v-41.6l73.1-69.3l20.1,19.1l20.7-19.6l-20.1-19.1c-11.4-10.8-29.9-10.8-41.4,0l-52.4,49.8V141.3
	h234v-27.8h-234c-16.1,0-29.2,12.4-29.3,27.8v222H174.8z"/>
</svg>
